<?xml version="1.0" encoding="UTF-8" standalone="no"?>
<!-- Created with Inkscape (http://www.inkscape.org/) -->

<svg
   width="200"
   height="200"
   viewBox="0 0 52.916665 52.916666"
   version="1.1"
   id="svg1"
   xml:space="preserve"
   inkscape:version="1.4.2 (ebf0e940, 2025-05-08)"
   sodipodi:docname="escudo.svg"
   xmlns:inkscape="http://www.inkscape.org/namespaces/inkscape"
   xmlns:sodipodi="http://sodipodi.sourceforge.net/DTD/sodipodi-0.dtd"
   xmlns="http://www.w3.org/2000/svg"
   xmlns:svg="http://www.w3.org/2000/svg"><sodipodi:namedview
     id="namedview1"
     pagecolor="#ffffff"
     bordercolor="#000000"
     borderopacity="0.25"
     inkscape:showpageshadow="2"
     inkscape:pageopacity="0.0"
     inkscape:pagecheckerboard="0"
     inkscape:deskcolor="#d1d1d1"
     inkscape:document-units="mm"
     inkscape:zoom="2.9647587"
     inkscape:cx="56.328362"
     inkscape:cy="105.91081"
     inkscape:window-width="1920"
     inkscape:window-height="1021"
     inkscape:window-x="0"
     inkscape:window-y="31"
     inkscape:window-maximized="0"
     inkscape:current-layer="layer1" /><defs
     id="defs1" /><g
     inkscape:label="Layer 1"
     inkscape:groupmode="layer"
     id="layer1"><path
       style="fill:#d5e5ff;stroke-width:0.423333;paint-order:markers fill stroke;fill-opacity:1"
       d="m 11.51232,10.88762 6.960937,-2.0525841 5.176082,-2.945012 3.301984,-1.6956129 3.123496,1.6956129 5.800781,2.945012 8.121094,2.8557691 -0.535456,8.835036 -2.498799,9.727464 -2.677284,6.42548 -3.83744,5.44381 -4.81911,5.176083 -2.945011,1.784856 L 21.507512,44.889123 18.5625,40.69471 15.528245,36.143329 12.940204,30.253305 11.690805,24.184795 10.88762,18.205529 9.9059493,12.404748 Z"
       id="path50" /><g
       id="g43"
       transform="translate(56.541343,15.145003)"
       style="fill:#803300;fill-opacity:1"><path
         style="fill:#803300;fill-opacity:1;stroke-width:0.236081"
         d="m -29.944794,36.830082 c -2.700773,-1.479734 -4.420732,-2.669236 -6.339979,-4.384635 -0.864201,-0.772416 -0.871074,-0.779145 -1.755924,-1.719925 -5.662298,-6.020166 -9.205806,-14.459784 -10.764613,-25.6382289 -0.442956,-3.1765069 -0.686144,-6.2495697 -0.843619,-10.6607887 l -0.03466,-0.9715906 0.734227,-0.078481 c 0.956073,-0.1021806 2.268584,-0.2999468 3.014113,-0.454269 2.47366,-0.5120225 5.314771,-1.444071 7.609214,-2.4962661 0.217106,-0.09961 0.407649,-0.1810301 0.423424,-0.1810301 0.01576,0 0.583593,-0.2775766 1.261823,-0.6168296 2.298399,-1.149693 4.065044,-2.178734 6.493976,-3.782628 l 0.641202,-0.423403 1.232677,0.810024 c 6.243924,4.103033 12.256454,6.489941 17.910259,7.1101478 0.5496719,0.060257 1.0061632,0.1139306 1.014424,0.1191849 0.032655,0.020793 -0.1140095,3.6460249 -0.2034476,5.0285975 C -10.32315,10.415647 -12.961526,19.562157 -17.659735,26.59823 c -0.813512,1.218322 -2.133234,2.883401 -3.031598,3.824942 l -0.461022,0.483178 -0.06473,-0.04002 -0.06473,-0.04002 0.04875,0.07882 0.04875,0.07882 -0.523147,0.501525 c -1.388341,1.330933 -2.232283,2.043662 -3.490138,2.947517 -1.422596,1.022233 -3.839855,2.476299 -4.247471,2.555014 l -0.156157,0.03018 z m 1.00675,-1.229816 0.242507,-0.242506 v -0.327013 -0.327011 l -0.242507,-0.242496 -0.242495,-0.242507 h -0.279197 -0.279198 l -0.211327,0.142417 -0.211338,0.142415 -0.08161,0.154278 -0.08161,0.154289 0.02493,0.298739 0.02493,0.298728 0.149515,0.160952 c 0.191606,0.206262 0.33467,0.263357 0.67218,0.268253 l 0.272826,0.0045 z m 0.588804,-3.240006 c 2.916404,-2.181093 5.151863,-4.458094 7.251256,-7.386026 2.683948,-3.743196 4.748337,-8.438991 6.013782,-13.679351 0.991106,-4.1043065 1.490413,-8.2072724 1.657694,-13.6218431 l 0.03392,-1.0980534 -0.671259,-0.1392857 c -5.010586,-1.0396963 -9.696005,-3.0264554 -14.401145,-6.1065278 -0.543113,-0.355531 -1.014073,-0.646423 -1.046583,-0.646423 -0.03253,0 -0.304922,0.164518 -0.605338,0.3656044 -3.092436,2.0698452 -6.363467,3.7539297 -9.447162,4.8638671 -1.855276,0.6677756 -2.980228,0.9873872 -5.398125,1.5336526 l -0.619726,0.1400124 0.01286,1.1238335 c 0.03868,3.3742729 0.439758,7.5244275 1.037774,10.7388443 1.024358,5.5060627 2.710656,10.1755977 5.159252,14.2865117 0.354291,0.594828 1.540059,2.416623 1.620038,2.489009 0.01901,0.01722 0.214546,0.270154 0.434581,0.562176 0.613678,0.814383 1.47202,1.83182 2.296477,2.722091 l 0.747375,0.807051 0.868269,0.783863 c 0.477544,0.431128 1.107176,0.980681 1.399196,1.221242 1.011781,0.833489 2.391301,1.836561 2.525243,1.836148 0.03677,-1.12e-4 0.546042,-0.358494 1.13158,-0.796396 z m -10.683964,-5.851388 0.23354,-0.178135 0.124562,-0.281613 0.124575,-0.281612 -0.03074,-0.272848 -0.03074,-0.272859 -0.159577,-0.241141 -0.159577,-0.241144 -0.273697,-0.132488 -0.273696,-0.1325 h -0.232614 -0.232623 l -0.231741,0.118851 c -0.279755,0.143466 -0.481368,0.351014 -0.57114,0.587918 l -0.06662,0.175843 v 0.284128 0.284128 l 0.130677,0.232523 0.13069,0.232513 0.259712,0.170902 0.259712,0.170889 0.382887,-0.02258 0.382898,-0.02258 z m 20.269048,0.08955 0.244662,-0.12482 0.166062,-0.283356 0.16606,-0.283357 V 25.60758 25.30827 l -0.09537,-0.182606 c -0.210432,-0.40311 -0.601861,-0.651084 -1.027767,-0.651084 h -0.226061 l -0.273699,0.1325 -0.273686,0.132488 -0.149302,0.226665 -0.149303,0.226677 -0.04203,0.266386 -0.04215,0.266396 0.103411,0.270746 0.10341,0.270746 0.138961,0.130185 c 0.07646,0.07166 0.223301,0.174044 0.326365,0.227649 l 0.18739,0.09748 0.299187,4.71e-4 0.299187,4.8e-4 z M -45.29089,13.765404 c 0.298527,-0.10643 0.460551,-0.251473 0.61152,-0.547262 l 0.118278,-0.231739 V 12.69872 12.411048 l -0.07009,-0.136435 c -0.103634,-0.201702 -0.375017,-0.478932 -0.567048,-0.579256 l -0.168666,-0.08809 h -0.318516 -0.318527 l -0.168665,0.08809 c -0.389261,0.203367 -0.637145,0.600408 -0.637145,1.020557 v 0.226072 l 0.130287,0.269136 0.130286,0.269136 0.184607,0.131449 c 0.344039,0.244977 0.682075,0.293362 1.073682,0.153697 z m 32.588125,-0.122227 0.232422,-0.153808 0.132492,-0.273697 0.132494,-0.273686 v -0.183702 c 0,-0.101063 -0.02756,-0.279768 -0.06123,-0.397198 l -0.06123,-0.213507 -0.173004,-0.182047 c -0.09515,-0.100172 -0.248904,-0.221713 -0.341674,-0.270175 l -0.168672,-0.08809 -0.331033,0.0023 -0.331031,0.0023 -0.130126,0.07591 c -0.07157,0.04169 -0.205364,0.136357 -0.297322,0.210276 l -0.167194,0.134399 -0.09307,0.222753 -0.09307,0.222752 v 0.254346 0.254345 l 0.118278,0.231741 c 0.142597,0.279398 0.283014,0.412882 0.57067,0.542508 l 0.216763,0.09771 0.306559,-0.03063 0.306559,-0.03063 z M -47.028369,-3.6164518 c 0.06876,-0.018446 0.202854,-0.088542 0.298114,-0.155608 l 0.173183,-0.121991 0.123511,-0.2421038 0.123511,-0.2421039 v -0.2855811 -0.2855699 l -0.08519,-0.2039147 -0.08519,-0.2039146 -0.194301,-0.1634895 -0.194289,-0.1634894 -0.22662,-0.07479 -0.226609,-0.07479 -0.259063,0.040917 -0.259064,0.040917 -0.226665,0.1492914 -0.226665,0.1493027 -0.132489,0.2736972 -0.132499,0.2736973 0.0011,0.2145128 0.0011,0.2145128 0.114669,0.2524339 0.114668,0.2524337 0.201086,0.1692134 0.201097,0.1692022 0.166955,0.036669 c 0.09179,0.020123 0.195072,0.045388 0.229427,0.055898 0.06193,0.019116 0.258873,-0.01118 0.499703,-0.075461 z m 35.947341,-0.051761 c 0.08588,-0.0436 0.230066,-0.1590065 0.320397,-0.2565478 l 0.164239,-0.1773522 0.07724,-0.2415114 0.07724,-0.2415225 -0.03313,-0.2470341 -0.03314,-0.247034 -0.157381,-0.2378222 -0.157381,-0.237811 -0.273694,-0.1324998 -0.273692,-0.1324886 h -0.210411 -0.21041 l -0.271269,0.131326 -0.27127,0.1313147 -0.170075,0.2229758 -0.170074,0.2229868 v 0.4154426 0.4154425 l 0.153302,0.2237359 0.1533,0.2237249 0.185913,0.1097828 c 0.102249,0.060369 0.272187,0.1293472 0.377632,0.1532156 l 0.19172,0.043377 0.187388,-0.031303 c 0.103063,-0.017217 0.257659,-0.066966 0.343546,-0.1104538 z m -17.947168,-7.9138212 0.206006,-0.140539 0.09457,-0.235497 c 0.123309,-0.30709 0.11952,-0.39182 -0.03142,-0.703708 l -0.126028,-0.260326 -0.208184,-0.112118 -0.208185,-0.11211 -0.295174,0.03332 -0.295161,0.03332 -0.183636,0.175944 -0.183634,0.175932 -0.06495,0.241276 -0.06495,0.241278 0.06741,0.204249 0.06741,0.204251 0.170331,0.158671 c 0.208578,0.194288 0.28983,0.225491 0.603706,0.231785 l 0.245984,0.0044 z"
         id="path43"
         sodipodi:nodetypes="ssssscsssssscsssssscccccssscsccccccccccccccsscccssscsssssscsssssscsssscccccccccccssccccccccccccscccsscccccccccssccccsscccsscccsscccssccccsscsscccsscccccsscccccscccccccccccccccccccccccssccsscscccccccccccccccccsscssccsscccccccccccsscccccc" /></g><g
       id="g50"
       transform="translate(-34.983175,-44.264424)" /><path
       style="fill:#fdbe47;fill-opacity:1;stroke:#533000;stroke-width:0.1;stroke-linecap:round;stroke-linejoin:miter;stroke-dasharray:none;stroke-opacity:1;paint-order:markers stroke fill"
       d="m 26.941718,15.015236 -0.02083,-0.01882 -0.0059,-0.02513 -0.0059,-0.02513 -0.0053,-0.114532 c -0.0029,-0.06299 -0.01248,-0.313498 -0.02126,-0.556679 -0.0088,-0.243181 -0.0184,-0.504474 -0.02138,-0.580653 -0.003,-0.07618 -0.01137,-0.297916 -0.01866,-0.492754 -0.02434,-0.650848 -0.03239,-0.836236 -0.03798,-0.874971 l -0.0029,-0.01998 h -0.0074 -0.0074 l -0.01622,0.05222 c -0.029,0.09333 -0.04278,0.181207 -0.06409,0.408571 -0.013,0.138632 -0.02745,0.2425 -0.04595,0.33019 l -0.01347,0.06384 -0.0202,0.06135 c -0.0216,0.06558 -0.06079,0.158221 -0.137517,0.32504 -0.07044,0.153165 -0.103904,0.248653 -0.132535,0.378224 l -0.01353,0.06126 -0.0042,0.24771 -0.0041,0.247708 -0.01361,0.05078 c -0.0075,0.02793 -0.02104,0.07129 -0.03011,0.09635 l -0.01649,0.04556 -0.02346,0.04118 -0.02346,0.04117 -0.03051,0.03729 c -0.01678,0.02051 -0.04283,0.04781 -0.05789,0.06068 l -0.02739,0.02339 -0.029,0.0135 -0.029,0.0135 -0.02145,6e-5 -0.02145,6.1e-5 -0.01218,-0.0085 -0.01218,-0.0085 -0.0049,-0.01278 -0.0049,-0.01278 0.0052,-0.01375 c 0.0029,-0.0076 0.02452,-0.03813 0.04809,-0.06792 l 0.04285,-0.05417 0.02381,-0.04794 0.02382,-0.04794 0.0078,-0.03729 0.0078,-0.03729 -1.2e-5,-0.06126 -10e-6,-0.06126 -0.01053,-0.103876 c -0.0058,-0.05713 -0.01328,-0.1489 -0.01666,-0.203926 l -0.0061,-0.100046 0.006,-0.08107 c 0.0069,-0.09304 0.01709,-0.157625 0.03809,-0.240886 0.01872,-0.07424 0.04197,-0.136198 0.104969,-0.279671 l 0.05028,-0.114533 0.02084,-0.06213 0.02084,-0.06213 0.01325,-0.06572 0.01325,-0.06572 0.0079,-0.07724 c 0.0043,-0.04249 0.01053,-0.122789 0.0137,-0.178458 0.01525,-0.267301 0.02236,-0.373042 0.02932,-0.435665 l 0.0076,-0.0681 -0.003,-0.0078 -0.003,-0.0078 -0.0055,0.0034 c -0.003,0.0018 -0.01741,0.02881 -0.032,0.0599 -0.05849,0.124557 -0.504776,1.092745 -0.504776,1.095075 0,0.0031 -0.245112,0.536832 -0.363354,0.791298 -0.04697,0.101082 -0.11355,0.241317 -0.147958,0.311635 l -0.06256,0.127849 -0.01621,0.0093 -0.01621,0.0093 h -0.01546 -0.01546 l -0.01968,-0.01803 -0.01968,-0.01803 1.1e-5,-0.02325 10e-6,-0.02325 0.03142,-0.0879 c 0.0444,-0.124203 0.153164,-0.420759 0.269602,-0.735136 0.0548,-0.14796 0.130276,-0.35292 0.167728,-0.455465 0.03745,-0.102546 0.100495,-0.273945 0.140101,-0.380887 0.08834,-0.238535 0.21936,-0.596857 0.267276,-0.730966 l 0.03562,-0.09971 -0.0018,-0.0084 -0.0018,-0.0084 -0.02059,0.02006 c -0.05584,0.05439 -0.119762,0.156119 -0.235318,0.374554 -0.09534,0.180225 -0.160387,0.28275 -0.23833,0.375665 l -0.04478,0.05338 -0.100721,0.09578 c -0.0554,0.05268 -0.142759,0.137732 -0.19414,0.189005 l -0.09342,0.09322 -0.0456,0.06126 c -0.08826,0.11858 -0.127071,0.194503 -0.212396,0.41551 -0.0096,0.02491 -0.0301,0.07045 -0.04553,0.101216 l -0.02804,0.05594 -0.02797,0.03961 -0.02796,0.03961 -0.0511,0.05137 -0.05111,0.05137 -0.04185,0.02809 c -0.02302,0.01546 -0.0568,0.03509 -0.07508,0.04365 l -0.03322,0.01555 -0.03936,0.0082 -0.03936,0.0082 -0.02659,-0.0037 -0.02659,-0.0037 -0.01744,-0.01744 -0.01745,-0.01745 v -0.01048 -0.01048 l 0.01103,-0.01402 0.01103,-0.01402 0.03825,-0.02183 c 0.02104,-0.01201 0.058,-0.035 0.08216,-0.0511 l 0.04391,-0.02927 0.03161,-0.0345 0.03161,-0.0345 0.02159,-0.04418 0.02158,-0.04418 0.0265,-0.08199 c 0.01458,-0.04509 0.0361,-0.114654 0.04783,-0.154573 0.01173,-0.03992 0.03365,-0.105839 0.04871,-0.146494 l 0.02738,-0.07392 0.03165,-0.06506 0.03165,-0.06506 0.03621,-0.0548 c 0.01991,-0.03014 0.05147,-0.07398 0.07013,-0.09742 l 0.03392,-0.04262 0.149452,-0.151821 0.149453,-0.151823 0.03867,-0.05105 c 0.02127,-0.02808 0.05432,-0.07722 0.07345,-0.109206 l 0.03479,-0.05815 0.07029,-0.143832 c 0.03866,-0.07911 0.108067,-0.218939 0.154238,-0.310739 0.04617,-0.0918 0.08395,-0.169195 0.08395,-0.171986 v -0.0051 l -0.0099,0.0053 c -0.01028,0.0055 -0.09708,0.08348 -0.216507,0.1945 -0.03809,0.03541 -0.0849,0.07874 -0.104027,0.09629 -0.101205,0.09286 -0.47029,0.434305 -0.607414,0.561929 -0.08658,0.08058 -0.23396,0.217235 -0.327501,0.303668 -0.09354,0.08643 -0.203754,0.18831 -0.244914,0.226399 -0.09068,0.08391 -0.364527,0.334405 -0.394173,0.360555 -0.01173,0.01034 -0.02683,0.02169 -0.03358,0.02522 l -0.01226,0.0064 -0.021,3.34e-4 -0.021,3.34e-4 -0.01313,-0.0086 -0.01313,-0.0086 -0.0054,-0.02016 -0.0054,-0.02016 0.0056,-0.02013 0.0056,-0.02013 0.05897,-0.06493 c 0.03244,-0.03571 0.0834,-0.0913 0.11325,-0.123531 0.02985,-0.03223 0.128249,-0.138904 0.218657,-0.237055 0.09041,-0.09815 0.204282,-0.221605 0.253053,-0.274344 0.04877,-0.05274 0.137426,-0.148624 0.197015,-0.213082 0.05958,-0.06446 0.167276,-0.180703 0.239311,-0.258322 0.07203,-0.07762 0.163333,-0.175998 0.202885,-0.218623 0.263985,-0.284473 0.348782,-0.37565 0.430162,-0.462515 l 0.09189,-0.09809 v -0.0099 -0.0099 h -0.0077 c -0.01259,0 -0.08509,0.04015 -0.145958,0.08085 -0.05542,0.03705 -0.144159,0.106875 -0.245834,0.193431 -0.225991,0.192387 -0.345623,0.260754 -0.652568,0.37292 -0.226577,0.0828 -0.344305,0.141894 -0.455465,0.228629 l -0.03463,0.02702 -0.13954,0.136638 -0.139542,0.136638 -0.04352,0.0324 -0.04352,0.03241 -0.05665,0.02876 c -0.05748,0.02919 -0.09284,0.04285 -0.155202,0.05999 l -0.03463,0.0095 -0.07192,3.34e-4 -0.07191,3.34e-4 -0.02845,-0.0099 -0.02845,-0.0099 -0.01799,-0.0158 -0.01799,-0.0158 -0.0033,-0.01768 -0.0033,-0.01768 0.0059,-0.01111 0.0059,-0.01111 0.02784,-0.0077 c 0.0153,-0.0043 0.04462,-0.0092 0.06513,-0.01111 0.02051,-0.0019 0.0567,-0.0079 0.08042,-0.01341 l 0.04313,-0.01001 0.03076,-0.0136 c 0.01692,-0.0075 0.04546,-0.0241 0.06343,-0.03692 l 0.03268,-0.02332 0.03727,-0.03931 c 0.0205,-0.02163 0.06472,-0.07286 0.09828,-0.113864 0.09456,-0.115543 0.153386,-0.181273 0.219315,-0.245042 l 0.06061,-0.05862 0.05348,-0.04025 c 0.113365,-0.08531 0.218071,-0.140415 0.393991,-0.207356 l 0.101215,-0.03851 0.06447,-0.0313 0.06448,-0.0313 0.07137,-0.04757 0.07137,-0.04757 0.06002,-0.05084 c 0.03301,-0.02796 0.114518,-0.09981 0.18112,-0.159664 0.145962,-0.13117 0.242737,-0.214566 0.287569,-0.247816 l 0.03329,-0.02469 v -0.0067 c 0,-0.0037 -0.0021,-0.0067 -0.0047,-0.0067 -0.0058,0 -0.09749,0.03268 -0.261666,0.09327 -0.06885,0.02541 -0.186314,0.06852 -0.261026,0.0958 -0.07471,0.02728 -0.18738,0.0688 -0.250372,0.09226 -0.06299,0.02346 -0.192441,0.07143 -0.287663,0.106604 -0.09522,0.03518 -0.300181,0.111136 -0.455466,0.168808 -0.155283,0.05767 -0.3111,0.115237 -0.346259,0.127923 -0.03516,0.01268 -0.09749,0.0354 -0.138504,0.05049 -0.112216,0.04125 -0.333125,0.120803 -0.400805,0.144326 l -0.05987,0.02081 h -0.01752 -0.01752 l -0.01188,-0.0083 c -0.0065,-0.0046 -0.01545,-0.01524 -0.01983,-0.0237 l -0.008,-0.0154 2e-5,-0.01492 2e-5,-0.01492 0.01196,-0.01449 0.01196,-0.01449 0.08523,-0.04224 c 0.07765,-0.03848 0.189983,-0.09126 0.505654,-0.237564 0.0613,-0.02841 0.135611,-0.06251 0.165139,-0.07578 0.02953,-0.01326 0.117215,-0.0536 0.194857,-0.08963 0.24845,-0.115288 0.599918,-0.276962 1.001492,-0.460681 0.109793,-0.05023 0.421633,-0.194887 0.448805,-0.20819 l 0.0253,-0.01239 v -0.0069 -0.0069 h -0.03968 -0.03968 l -0.05753,0.01091 c -0.07647,0.0145 -0.130706,0.02914 -0.305247,0.08237 -0.166381,0.05074 -0.247611,0.07192 -0.335606,0.08748 l -0.06126,0.01084 -0.09589,0.0057 -0.09589,0.0057 -0.202964,-0.0065 -0.202962,-0.0065 -0.07733,0.0064 -0.07733,0.0064 -0.06277,0.01302 -0.06277,0.01302 -0.07012,0.02379 c -0.03856,0.01308 -0.107126,0.03972 -0.152358,0.05921 -0.169499,0.07301 -0.220628,0.09124 -0.29266,0.104348 l -0.03995,0.0073 -0.0879,-6.71e-4 -0.0879,-6.71e-4 -0.05241,-0.01105 -0.05241,-0.01104 -0.04478,-0.02218 -0.04478,-0.02218 -0.02647,-0.02897 -0.02647,-0.02896 -0.0035,-0.01884 -0.0035,-0.01884 0.0059,-0.01298 0.0059,-0.013 0.0134,-0.0061 0.0134,-0.0061 0.04661,0.01231 c 0.02563,0.0068 0.06218,0.0166 0.08123,0.02186 l 0.03463,0.0096 0.06414,3.34e-4 0.06414,3.34e-4 0.03175,-0.0081 0.03175,-0.0081 0.09056,-0.04507 c 0.04981,-0.02478 0.132358,-0.06663 0.183443,-0.09297 0.179154,-0.09239 0.283746,-0.131768 0.439825,-0.165581 l 0.05327,-0.01154 0.269016,-0.0042 0.269019,-0.0041 0.05053,-0.0088 c 0.106708,-0.01861 0.202133,-0.04709 0.415585,-0.124005 0.149687,-0.05394 0.229449,-0.08067 0.322289,-0.108007 0.03809,-0.01121 0.07599,-0.02301 0.08422,-0.02621 l 0.01497,-0.0058 -0.0029,-0.0048 -0.0029,-0.0048 -0.03598,-0.0032 c -0.01979,-0.0018 -0.09591,-0.0056 -0.169155,-0.0085 -0.07325,-0.0029 -0.22547,-0.0089 -0.33827,-0.0133 -0.112801,-0.0045 -0.273412,-0.01039 -0.356915,-0.01326 -0.185535,-0.0064 -0.518109,-0.01863 -0.796397,-0.02936 -0.114266,-0.0044 -0.277275,-0.01037 -0.362242,-0.01328 -0.35601,-0.01213 -0.512896,-0.01989 -0.549677,-0.02715 l -0.02762,-0.0055 -0.01899,-0.02101 -0.01899,-0.02102 v -0.01313 -0.01311 l 0.01671,-0.01903 c 0.0092,-0.01048 0.0212,-0.02144 0.02668,-0.02437 l 0.01,-0.0053 0.05722,-0.0049 c 0.05544,-0.0047 0.179959,-0.01 0.507357,-0.02134 0.08643,-0.003 0.248242,-0.009 0.359577,-0.01331 0.111336,-0.0043 0.307906,-0.01151 0.436822,-0.01596 0.128914,-0.0045 0.29312,-0.01042 0.364904,-0.01327 0.07178,-0.0029 0.196434,-0.0077 0.277008,-0.01069 0.460423,-0.01741 0.616207,-0.02457 0.651235,-0.02989 l 0.01998,-0.0031 v -0.0071 -0.0071 l -0.0333,-0.01069 c -0.06097,-0.01959 -0.09274,-0.0273 -0.156907,-0.03806 l -0.06364,-0.01067 -0.162076,-0.01605 c -0.182634,-0.01808 -0.248966,-0.02685 -0.3481,-0.046 l -0.06883,-0.0133 -0.0601,-0.01821 c -0.07902,-0.02395 -0.139923,-0.04867 -0.281682,-0.114321 -0.131105,-0.06071 -0.206157,-0.09222 -0.277008,-0.1162795 -0.06326,-0.02148 -0.186622,-0.05201 -0.238772,-0.05908 l -0.04167,-0.0057 -0.171413,-1.64e-4 -0.171413,-1.62e-4 -0.06393,-0.0048 -0.06392,-0.0048 -0.0586,-0.01662 -0.0586,-0.01662 -0.04859,-0.02299 c -0.02673,-0.01265 -0.06388,-0.03333 -0.08257,-0.04598 l -0.03397,-0.023 -0.0418,-0.04221 -0.04181,-0.04221 -0.01545,-0.03267 -0.01545,-0.03267 -4e-6,-0.02438 -5e-6,-0.02437 0.012,-0.01079 c 0.0066,-0.0059 0.01641,-0.01234 0.02179,-0.01427 l 0.0098,-0.0035 0.01683,0.0081 c 0.0093,0.0045 0.0396,0.02607 0.06743,0.04803 l 0.05061,0.03993 0.03995,0.02076 c 0.02197,0.01141 0.05434,0.02517 0.07192,0.03056 l 0.03196,0.0098 0.09855,-5.01e-4 0.09855,-5.01e-4 0.07867,-0.0087 c 0.04327,-0.0048 0.124687,-0.01154 0.180927,-0.01504 l 0.102258,-0.0063 0.07787,0.0064 c 0.201623,0.01659 0.32384,0.05138 0.545789,0.155344 0.06724,0.0315 0.149716,0.06173 0.21841,0.08005 l 0.0586,0.01564 0.07458,0.01053 c 0.09531,0.01345 0.177986,0.02024 0.327615,0.02694 0.160143,0.0072 0.281466,0.01513 0.362242,0.0238 l 0.06659,0.0071 0.007,-0.0039 0.007,-0.0039 -0.007,-0.0057 c -0.0038,-0.0031 -0.03576,-0.01881 -0.07092,-0.03487 -0.03516,-0.01605 -0.16101,-0.07417 -0.279671,-0.129145 -0.11866,-0.05497 -0.258896,-0.119726 -0.311633,-0.143903 -0.05274,-0.02417 -0.159413,-0.0732 -0.237056,-0.108935 -0.07764,-0.03574 -0.191508,-0.08782 -0.253035,-0.11574 -0.190144,-0.08627 -0.584913,-0.2677298 -0.753782,-0.3464768 -0.255656,-0.119218 -0.382727,-0.179365 -0.42809,-0.202633 l -0.0472,-0.02421 -0.01004,-0.01647 -0.01004,-0.01647 -1.8e-5,-0.01713 -2e-5,-0.01713 0.01882,-0.01882 0.01882,-0.01882 h 0.01997 0.01997 l 0.07441,0.02618 c 0.04093,0.0144 0.134336,0.04816 0.207583,0.07504 0.07325,0.02687 0.152355,0.05558 0.175793,0.0638 0.02344,0.0082 0.09535,0.03456 0.159812,0.05852 0.140451,0.05222 0.387807,0.14381 0.487428,0.180474 0.03955,0.01455 0.151022,0.05569 0.247708,0.0914 0.09669,0.03571 0.197369,0.07291 0.223738,0.08264 0.02637,0.0097 0.112668,0.04168 0.191775,0.07099 0.07911,0.02931 0.210952,0.0776 0.29299,0.107318 0.08204,0.02972 0.171931,0.06253 0.199764,0.07291 0.02784,0.01037 0.09428,0.0341 0.147646,0.05271 l 0.09704,0.03384 0.0028,-0.0046 0.0028,-0.0046 -0.0325,-0.03009 c -0.05852,-0.05418 -0.162274,-0.118258 -0.365494,-0.225729 -0.178914,-0.09462 -0.281052,-0.158595 -0.363131,-0.2274588 -0.0509,-0.04271 -0.167964,-0.160149 -0.254801,-0.25562 -0.15577,-0.171264 -0.275832,-0.268962 -0.420725,-0.342353 l -0.06287,-0.03185 -0.08523,-0.03338 c -0.04688,-0.01836 -0.110145,-0.04388 -0.140594,-0.05672 l -0.05536,-0.02333 -0.04535,-0.02739 -0.04535,-0.02739 -0.04699,-0.03911 -0.04699,-0.03911 -0.03667,-0.04307 -0.03667,-0.04307 -0.02412,-0.04082 -0.02412,-0.04082 -0.01338,-0.03748 -0.01338,-0.03748 -0.0037,-0.02941 -0.0037,-0.0294 0.0059,-0.02195 0.0059,-0.02196 0.01629,-0.01372 0.01628,-0.0137 h 0.0095 0.0095 l 0.0139,0.01094 0.0139,0.01094 0.04142,0.07014 0.04142,0.07014 0.04262,0.04279 0.04261,0.04279 0.03729,0.01944 c 0.04537,0.02366 0.0987,0.04261 0.238984,0.08494 0.059,0.0178 0.143234,0.04559 0.187182,0.06176 l 0.07991,0.02939 0.07458,0.0363 0.07458,0.0363 0.04528,0.03035 c 0.0249,0.01669 0.06806,0.04849 0.09589,0.07065 l 0.05061,0.0403 0.146495,0.145255 c 0.179422,0.177901 0.206455,0.200238 0.322414,0.266404 0.03523,0.0201 0.131115,0.06889 0.213084,0.108427 0.08197,0.03953 0.216879,0.1060548 0.299803,0.1478258 0.08292,0.04177 0.153042,0.07595 0.155818,0.07595 0.0027,0 0.0051,-0.0022 0.0051,-0.0049 0,-0.0043 -0.164886,-0.1843908 -0.412559,-0.4507438 -0.03825,-0.04113 -0.110479,-0.11904 -0.160515,-0.173129 -0.05003,-0.05409 -0.154463,-0.166665 -0.232059,-0.250167 -0.562446,-0.605243 -0.940254,-1.016856 -0.959462,-1.045315 l -0.01465,-0.0217 v -0.02511 -0.02511 l 0.01345,-0.01345 0.01345,-0.01345 0.01358,-0.0026 0.01358,-0.0026 0.02054,0.0052 0.02054,0.0052 0.07363,0.06735 c 0.0405,0.03704 0.180802,0.166227 0.311785,0.287075 0.130985,0.12085 0.253242,0.233637 0.271681,0.25064 0.05332,0.04917 0.172,0.158849 0.318629,0.29448 0.07466,0.06906 0.187277,0.173192 0.25027,0.231414 0.135507,0.125245 0.442076,0.410422 0.577736,0.537423 0.05288,0.0495 0.110241,0.101803 0.127479,0.116222 l 0.03134,0.02622 0.0049,-0.0049 0.0049,-0.0049 -0.0093,-0.02343 c -0.01246,-0.03141 -0.03873,-0.07631 -0.08227,-0.140628 l -0.03606,-0.05327 -0.119769,-0.144974 c -0.23917,-0.289508 -0.273612,-0.347833 -0.392457,-0.664592 -0.08784,-0.234124 -0.140716,-0.344112 -0.217641,-0.452715 l -0.03002,-0.04238 -0.146495,-0.14955 c -0.08057,-0.08225 -0.156605,-0.162788 -0.168964,-0.178966 -0.05183,-0.06785 -0.101614,-0.169633 -0.125003,-0.255561 l -0.01225,-0.04499 1.2e-4,-0.07458 1.2e-4,-0.07458 0.01209,-0.03031 0.01209,-0.03031 0.01857,-0.0163 0.01857,-0.0163 h 0.0127 c 0.007,0 0.01657,0.0015 0.02132,0.0033 l 0.0086,0.0033 0.0075,0.01458 0.0075,0.01458 0.0082,0.06601 c 0.0045,0.03631 0.01179,0.08039 0.01624,0.09797 l 0.0081,0.03196 0.02137,0.04277 0.02138,0.04277 0.03292,0.03648 0.03293,0.03648 0.128144,0.107868 c 0.07048,0.05933 0.156008,0.134476 0.190066,0.166999 l 0.06192,0.05913 0.04462,0.05384 c 0.109127,0.131667 0.172346,0.246274 0.246655,0.447157 0.05304,0.143375 0.107086,0.246357 0.179549,0.342107 0.04503,0.0595 0.128086,0.15816 0.196251,0.233114 0.140887,0.154921 0.216753,0.242507 0.270218,0.311965 l 0.03058,0.03973 h 0.0068 c 0.0038,0 0.0068,-0.0015 0.0068,-0.0032 0,-0.0097 -0.260712,-0.719301 -0.527248,-1.435089 -0.09088,-0.244076 -0.274743,-0.74668 -0.329982,-0.902062 l -0.04305,-0.12108 v -0.02184 -0.02184 l 0.01903,-0.01794 0.01903,-0.01794 h 0.01587 0.01587 l 0.01576,0.0082 0.01575,0.0082 0.03393,0.06776 c 0.04151,0.08292 0.142716,0.299241 0.309584,0.661731 0.06946,0.15089 0.14188,0.307905 0.160938,0.348923 0.04756,0.102387 0.197756,0.428741 0.337087,0.732474 0.122214,0.266417 0.239187,0.519787 0.269914,0.584647 l 0.0183,0.03862 h 0.0086 0.0086 l -0.0031,-0.05461 -0.0031,-0.05461 -0.0141,-0.06659 -0.0141,-0.06659 -0.035,-0.114531 c -0.01925,-0.063 -0.04759,-0.157683 -0.06299,-0.210421 l -0.02799,-0.09589 -0.0136,-0.06925 c -0.0075,-0.03809 -0.0166,-0.09323 -0.02027,-0.122523 l -0.0067,-0.05327 0.0025,-0.191773 c 0.0013,-0.105475 0.0022,-0.245712 0.0018,-0.311635 l -6.72e-4,-0.119859 -0.0088,-0.05905 c -0.01722,-0.116092 -0.04601,-0.205964 -0.124469,-0.388425 -0.05019,-0.116736 -0.07568,-0.189176 -0.08714,-0.247707 l -0.0068,-0.03463 1.67e-4,-0.09323 1.67e-4,-0.09322 0.01094,-0.05174 0.01094,-0.05174 0.01894,-0.03939 0.01895,-0.03939 0.02483,-0.02762 0.02483,-0.02762 0.01502,-0.0078 0.01502,-0.0078 h 0.01649 0.01649 l 0.0137,0.0137 0.0137,0.0137 -0.0033,0.02047 c -0.0018,0.01126 -0.01186,0.05004 -0.02234,0.08619 l -0.01907,0.06572 0.002,0.07724 0.002,0.07724 0.01846,0.04528 c 0.01016,0.02491 0.04999,0.10521 0.08852,0.178458 0.130479,0.247999 0.179634,0.37382 0.213321,0.546025 l 0.0078,0.03996 0.0042,0.266354 0.0042,0.266353 0.0083,0.05061 c 0.0046,0.02783 0.01551,0.07817 0.02424,0.111869 l 0.0159,0.06126 0.04631,0.133177 c 0.05358,0.154099 0.139301,0.409758 0.160757,0.479436 l 0.01477,0.04794 h 0.0051 0.0051 l 0.0038,-0.01864 c 0.0021,-0.01026 0.0063,-0.08697 0.0095,-0.170467 0.0031,-0.0835 0.0129,-0.344794 0.02171,-0.580652 0.0088,-0.235855 0.02442,-0.652965 0.03469,-0.926912 0.01028,-0.273945 0.02106,-0.567599 0.02398,-0.652566 0.0063,-0.182898 0.0098,-0.237653 0.01694,-0.266354 l 0.0053,-0.02131 0.01418,-0.01512 c 0.0078,-0.0083 0.02053,-0.01844 0.02828,-0.02249 l 0.01408,-0.0074 0.01775,0.01196 0.01775,0.01196 0.0115,0.01705 0.0115,0.01704 0.0032,0.02278 c 0.0047,0.03283 0.01181,0.202398 0.02996,0.715301 0.0088,0.249041 0.01843,0.510334 0.02136,0.580653 0.0029,0.07032 0.01131,0.28846 0.0186,0.484763 0.02592,0.697251 0.03225,0.840588 0.03808,0.861654 l 0.0026,0.0093 h 0.0072 0.0072 l 0.01096,-0.03329 c 0.006,-0.01831 0.01693,-0.05813 0.02421,-0.08849 l 0.01325,-0.0552 0.01078,-0.08597 c 0.0059,-0.04728 0.01571,-0.138705 0.02171,-0.203162 0.01898,-0.203514 0.04074,-0.330033 0.07557,-0.439484 0.02252,-0.07076 0.03993,-0.113372 0.101206,-0.247709 0.07902,-0.173239 0.0941,-0.207988 0.11421,-0.263204 0.02204,-0.06052 0.0467,-0.148129 0.06136,-0.217984 l 0.01081,-0.05152 0.004,-0.245045 0.004,-0.245045 0.01647,-0.06184 0.01647,-0.06184 0.02111,-0.04897 c 0.02743,-0.06363 0.04923,-0.0993 0.08953,-0.146472 l 0.03283,-0.03843 0.02857,-0.02204 c 0.0157,-0.01213 0.03929,-0.0269 0.0524,-0.03285 l 0.02383,-0.01081 0.02032,-1.21e-4 0.02032,-1.2e-4 0.01026,0.0055 0.01026,0.0055 0.0082,0.01594 0.0082,0.01594 -0.0083,0.0172 c -0.0045,0.0095 -0.02153,0.0337 -0.03777,0.05387 -0.01624,0.02017 -0.03945,0.05129 -0.05158,0.06915 l -0.02206,0.03248 -0.01457,0.03473 -0.01457,0.03472 -0.0064,0.03712 -0.0065,0.03712 0.0031,0.0854 c 0.0017,0.04697 0.0068,0.118962 0.01119,0.15998 0.0045,0.04102 0.01081,0.116531 0.01417,0.167802 l 0.0061,0.09323 -0.0035,0.06392 c -0.007,0.1268 -0.02859,0.244918 -0.06424,0.351586 l -0.01958,0.0586 -0.05079,0.114532 c -0.02793,0.06299 -0.05881,0.135539 -0.06861,0.161214 -0.05156,0.135063 -0.07507,0.287946 -0.08745,0.568596 -0.0059,0.133396 -0.01805,0.30946 -0.02647,0.382957 l -0.0051,0.04469 0.0046,0.0082 0.0046,0.0082 0.0133,-0.02627 c 0.02133,-0.04214 0.440829,-0.950228 0.565844,-1.224863 0.18105,-0.397735 0.428788,-0.929526 0.498597,-1.070288 l 0.03412,-0.0688 0.01599,-0.0098 0.01599,-0.0098 0.01693,-2.1e-5 0.01693,-2e-5 0.01902,0.01794 0.01903,0.01794 v 0.0213 0.0213 l -0.0447,0.124507 c -0.05251,0.146281 -0.127036,0.34952 -0.253717,0.691897 -0.05041,0.136241 -0.121109,0.328014 -0.15711,0.426166 -0.036,0.09815 -0.115053,0.3127 -0.175671,0.476775 -0.145648,0.39422 -0.285047,0.777634 -0.285047,0.784016 0,9.76e-4 0.0034,0.0017 0.0075,0.0017 h 0.0075 l 0.02809,-0.03063 0.02809,-0.03063 0.03843,-0.0586 c 0.04159,-0.06342 0.08471,-0.13918 0.162205,-0.285 0.13792,-0.259527 0.227483,-0.378407 0.407474,-0.540845 0.03809,-0.03437 0.101214,-0.09395 0.140277,-0.132389 l 0.07102,-0.06989 0.05163,-0.06126 c 0.106083,-0.125873 0.156499,-0.218306 0.243896,-0.447149 l 0.02962,-0.07757 0.02347,-0.04462 c 0.01291,-0.02454 0.03476,-0.0617 0.04855,-0.08257 l 0.02508,-0.03795 0.05879,-0.05861 0.05879,-0.05861 0.03954,-0.02625 0.03954,-0.02625 0.03994,-0.01736 0.03994,-0.01736 0.03635,-0.0061 0.03635,-0.0061 0.02255,0.0038 0.02255,0.0038 0.01744,0.01744 0.01744,0.01744 v 0.01048 0.01048 l -0.01051,0.01335 -0.01051,0.01335 -0.06176,0.03645 -0.06176,0.03645 -0.03418,0.0282 -0.03418,0.0282 -0.02186,0.02765 c -0.04091,0.05176 -0.06092,0.101231 -0.120195,0.297218 -0.01905,0.06299 -0.04665,0.146894 -0.06133,0.186448 l -0.02668,0.07192 -0.03639,0.07458 -0.0364,0.07458 -0.03203,0.04794 c -0.01762,0.02637 -0.04839,0.06832 -0.06839,0.09322 l -0.03636,0.04528 -0.15184,0.154484 -0.151843,0.154486 -0.03631,0.04902 c -0.01996,0.02696 -0.05352,0.07858 -0.07458,0.114696 l -0.03827,0.06567 -0.07447,0.154323 c -0.04096,0.08488 -0.107625,0.219812 -0.148148,0.299851 l -0.07368,0.145527 0.0018,0.0054 0.0018,0.0054 0.0195,-0.01551 c 0.02152,-0.0171 0.276331,-0.251273 0.560716,-0.515301 0.04418,-0.04102 0.124505,-0.11533 0.178497,-0.165138 0.054,-0.04981 0.153466,-0.1421 0.22105,-0.205094 0.06759,-0.06299 0.182772,-0.169657 0.255965,-0.237034 0.07319,-0.06738 0.152258,-0.140644 0.175696,-0.162821 0.02344,-0.02217 0.0857,-0.07972 0.138349,-0.127871 0.05265,-0.04815 0.126964,-0.116185 0.165138,-0.151182 0.102283,-0.09377 0.173366,-0.158118 0.195782,-0.177237 l 0.01983,-0.01691 0.01879,-0.0052 0.01879,-0.0052 0.0181,0.005 0.0181,0.005 0.0077,0.01188 c 0.0042,0.0065 0.0093,0.0182 0.01114,0.0259 l 0.0034,0.01402 -0.0061,0.01794 c -0.0034,0.0099 -0.01205,0.02514 -0.01929,0.03393 -0.01303,0.0158 -0.177033,0.194437 -0.435263,0.474079 -0.07325,0.07932 -0.220475,0.238829 -0.327169,0.354461 -0.106695,0.115633 -0.210987,0.22822 -0.231759,0.250194 -0.02077,0.02197 -0.09548,0.10228 -0.166014,0.178457 -0.07053,0.07618 -0.222741,0.240125 -0.338237,0.364332 -0.115496,0.124204 -0.228552,0.2464598 -0.251235,0.2716798 l -0.04124,0.04586 -4e-5,0.0093 -4.1e-5,0.0093 h 0.006 c 0.01092,0 0.08093,-0.03784 0.132466,-0.0716 0.06156,-0.04033 0.127136,-0.09131 0.252023,-0.1959498 0.169604,-0.142099 0.25981,-0.204603 0.386747,-0.267972 0.05934,-0.02962 0.176544,-0.07924 0.213563,-0.0904 0.04257,-0.01284 0.20898,-0.07709 0.264806,-0.102239 0.07754,-0.03493 0.168247,-0.08617 0.227292,-0.128387 l 0.04252,-0.0304 0.141546,-0.138619 c 0.07785,-0.07624 0.158615,-0.15237 0.179478,-0.169177 l 0.03793,-0.03056 0.04463,-0.02561 c 0.0568,-0.03258 0.125018,-0.0618 0.178527,-0.07646 l 0.0419,-0.01148 0.07458,-5.01e-4 0.07458,-5.01e-4 0.02845,0.0099 0.02845,0.0099 0.01778,0.01562 0.01779,0.01562 0.0032,0.01483 0.0032,0.01483 -0.0054,0.01433 -0.0054,0.01433 -0.01366,0.0052 c -0.0075,0.0029 -0.04172,0.0087 -0.07601,0.01295 -0.03429,0.0043 -0.07553,0.01048 -0.09165,0.0138 l -0.0293,0.006 -0.05024,0.02412 -0.05024,0.02411 -0.05128,0.05135 -0.05128,0.05135 -0.09263,0.111869 -0.09263,0.111869 -0.08019,0.08005 -0.08019,0.08005 -0.05184,0.03877 c -0.126145,0.09436 -0.225551,0.145894 -0.414285,0.214768 l -0.07192,0.02624 -0.06956,0.03364 c -0.138439,0.06695 -0.221569,0.130051 -0.484571,0.3678328 -0.119365,0.107917 -0.228605,0.201327 -0.267568,0.228794 l -0.02264,0.01596 v 0.007 c 0,0.01168 -0.02554,0.02021 0.335606,-0.112024 0.09229,-0.03379 0.210952,-0.0774 0.263689,-0.09692 0.05274,-0.01951 0.149824,-0.05535 0.215747,-0.07964 0.278351,-0.102561 0.468346,-0.173045 0.500746,-0.1857608 0.01904,-0.0075 0.113733,-0.04265 0.210419,-0.07816 0.09669,-0.03551 0.220142,-0.08099 0.274344,-0.101063 0.09782,-0.03622 0.438901,-0.160133 0.584817,-0.212459 l 0.07608,-0.02728 h 0.02096 0.02096 l 0.01882,0.01882 0.01882,0.01882 -1.9e-5,0.01713 -2.1e-5,0.01713 -0.01014,0.01664 -0.01014,0.01664 -0.07906,0.03869 c -0.173222,0.08477 -0.458122,0.216883 -1.240368,0.5751908 -0.295522,0.135364 -0.590451,0.270821 -0.717824,0.329688 -0.05786,0.02674 -0.151356,0.06994 -0.207756,0.096 -0.0564,0.02605 -0.121124,0.05635 -0.14383,0.06731 l -0.04129,0.01994 v 0.008 0.008 l 0.05461,-0.003 0.0546,-0.003 0.06487,-0.01388 c 0.06718,-0.01438 0.150942,-0.03799 0.297372,-0.08381 0.04688,-0.01467 0.125985,-0.03707 0.175793,-0.04978 l 0.09056,-0.02311 0.05818,-0.0086 c 0.032,-0.0048 0.09552,-0.01093 0.141167,-0.01377 l 0.08299,-0.0051 0.191774,0.006 0.191776,0.006 0.0693,-0.0034 c 0.08346,-0.004 0.153944,-0.01417 0.226056,-0.03244 0.08357,-0.02119 0.148752,-0.04578 0.325248,-0.122739 0.0586,-0.02556 0.14196,-0.0542 0.189112,-0.065 l 0.03729,-0.0085 0.09855,1.8e-5 0.09855,1.7e-5 0.05174,0.01106 0.05174,0.01106 0.04085,0.01965 0.04085,0.01965 0.02372,0.02186 0.02372,0.02186 0.01021,0.02 0.01021,0.02 v 0.01377 0.01377 l -0.01363,0.01363 -0.01363,0.01363 -0.02233,-0.0034 c -0.01228,-0.0018 -0.04629,-0.01079 -0.0756,-0.0199 l -0.05327,-0.01655 -0.07043,-0.0026 -0.07043,-0.0026 -0.03878,0.0095 -0.03878,0.0095 -0.213083,0.107534 -0.213083,0.107536 -0.04528,0.01716 c -0.0674,0.02554 -0.158081,0.05212 -0.230933,0.0677 l -0.06472,0.01385 -0.269018,0.0041 -0.269017,0.0041 -0.0586,0.01091 c -0.08793,0.01637 -0.149374,0.03387 -0.28613,0.08144 -0.133121,0.04631 -0.429001,0.145536 -0.493854,0.165625 l -0.03952,0.01225 -0.002,0.0059 -0.002,0.0059 0.02019,0.0032 c 0.01109,0.0018 0.09689,0.0057 0.19065,0.0088 0.09376,0.0031 0.256764,0.0092 0.362241,0.01352 0.404978,0.01676 0.45211,0.01861 0.60995,0.02391 0.301745,0.01012 0.465573,0.01597 0.593969,0.02123 0.139883,0.0057 0.181597,0.0073 0.508736,0.01881 0.209793,0.0074 0.252503,0.0096 0.318586,0.01644 l 0.02826,0.0029 0.01862,0.01635 c 0.01024,0.009 0.02196,0.02279 0.02603,0.03066 l 0.0074,0.0143 -0.0096,0.01553 c -0.0053,0.0085 -0.01533,0.02078 -0.02233,0.0272 l -0.0127,0.01166 -0.02415,0.0054 -0.02414,0.0054 -0.18361,0.0081 c -0.100986,0.0045 -0.256724,0.01059 -0.346087,0.01361 -0.08936,0.003 -0.218809,0.0079 -0.287661,0.01074 -0.06885,0.0029 -0.229464,0.0089 -0.356914,0.01335 -0.127451,0.0045 -0.290461,0.01041 -0.362242,0.01327 -0.07178,0.0029 -0.197634,0.0076 -0.279671,0.01061 -0.08204,0.003 -0.21628,0.0079 -0.298317,0.01087 -0.248081,0.0091 -0.498326,0.02097 -0.511909,0.02438 l -0.01281,0.0032 v 0.007 0.007 l 0.0333,0.01069 c 0.100911,0.03242 0.163712,0.04287 0.404305,0.06729 l 0.184564,0.01873 0.07646,0.01298 c 0.04205,0.0071 0.101944,0.01902 0.13309,0.02639 l 0.05663,0.01342 0.06837,0.02478 0.06837,0.02478 0.133372,0.0612 c 0.241955,0.111029 0.321786,0.139886 0.476967,0.172412 l 0.05594,0.01173 0.242382,0.004 0.242383,0.004 0.05317,0.01392 c 0.06632,0.01735 0.116229,0.03595 0.168607,0.06282 l 0.04066,0.02086 0.04457,0.03604 0.04457,0.03604 0.02506,0.03104 c 0.01378,0.01707 0.02917,0.03969 0.03419,0.05025 l 0.0091,0.01921 0.0024,0.02522 0.0024,0.02522 -0.0087,0.01322 c -0.0048,0.0073 -0.01363,0.01587 -0.01969,0.01912 l -0.01103,0.0059 -0.01603,-0.0056 -0.01604,-0.0056 -0.04618,-0.03674 c -0.0254,-0.02021 -0.06157,-0.04666 -0.08039,-0.05878 l -0.03421,-0.02203 -0.04304,-0.01383 -0.04304,-0.01383 -0.07192,-0.0027 -0.07192,-0.0027 -0.106541,0.01118 c -0.0586,0.0062 -0.14894,0.01392 -0.20076,0.01725 l -0.09422,0.006 -0.08851,-0.0062 c -0.19999,-0.01418 -0.29497,-0.03986 -0.532766,-0.144126 l -0.111869,-0.04905 -0.06126,-0.02054 -0.06126,-0.02054 -0.06659,-0.01333 -0.06659,-0.01333 -0.07724,-0.0082 c -0.04248,-0.0045 -0.143165,-0.01178 -0.223737,-0.01621 -0.251733,-0.01383 -0.325616,-0.01897 -0.390618,-0.0272 l -0.063,-0.008 -0.01084,0.0034 -0.01084,0.0034 0.0072,0.007 c 0.0067,0.0065 0.09744,0.04996 0.244306,0.117111 0.03369,0.0154 0.109206,0.05013 0.167803,0.07715 0.0586,0.02703 0.149691,0.06896 0.202429,0.09319 0.05274,0.02422 0.146229,0.06738 0.207757,0.09591 0.06153,0.02853 0.205359,0.09449 0.319624,0.146576 0.49532,0.225792 1.041782,0.479578 1.15909,0.538302 l 0.08302,0.04156 0.0089,0.01355 0.0089,0.01355 v 0.01377 0.01376 l -0.008,0.0154 c -0.0044,0.0085 -0.0133,0.01914 -0.01983,0.02371 l -0.01186,0.0083 h -0.01945 -0.01945 l -0.02331,-0.0085 c -0.01281,-0.0046 -0.05927,-0.02118 -0.103215,-0.03673 -0.09898,-0.03503 -0.34943,-0.126642 -0.711166,-0.260144 -0.543661,-0.200645 -0.818228,-0.301817 -0.993501,-0.366083 -0.07032,-0.02579 -0.200963,-0.07369 -0.290324,-0.106457 -0.08936,-0.03277 -0.181654,-0.06633 -0.205092,-0.07458 -0.02344,-0.0083 -0.07318,-0.02576 -0.110535,-0.0389 l -0.06792,-0.02389 -0.0026,0.0042 -0.0026,0.0042 0.01062,0.0135 c 0.02857,0.03632 0.159253,0.120602 0.319514,0.206054 0.244613,0.130432 0.342927,0.190912 0.431493,0.265452 l 0.05061,0.04259 0.07724,0.07935 c 0.04248,0.04365 0.120344,0.124559 0.173024,0.179813 l 0.09578,0.100462 0.05338,0.04491 c 0.02936,0.0247 0.0798,0.06258 0.112097,0.08418 l 0.05872,0.03927 0.06647,0.03175 c 0.03656,0.01746 0.115611,0.05122 0.175673,0.07503 0.164049,0.065 0.222542,0.09715 0.303642,0.166889 0.06604,0.05679 0.117477,0.120894 0.15155,0.188889 l 0.01936,0.03862 0.01073,0.04128 0.01073,0.04128 -0.0035,0.02901 -0.0035,0.02901 -0.0176,0.0176 -0.0176,0.0176 h -0.01201 -0.01201 l -0.01915,-0.02015 -0.01915,-0.02015 -0.01819,-0.03444 c -0.01001,-0.01895 -0.02778,-0.04883 -0.03951,-0.06641 l -0.02132,-0.03196 -0.03781,-0.0375 -0.03782,-0.0375 -0.05052,-0.02477 -0.05052,-0.02477 -0.0879,-0.02714 c -0.189582,-0.05852 -0.228958,-0.07135 -0.298342,-0.09718 l -0.07192,-0.02678 -0.06264,-0.03138 c -0.07473,-0.03744 -0.121528,-0.06684 -0.193033,-0.121253 l -0.05324,-0.04052 -0.159843,-0.157284 -0.15984,-0.157284 -0.05594,-0.04059 -0.05594,-0.0406 -0.07458,-0.04164 c -0.04102,-0.02289 -0.154885,-0.08032 -0.253036,-0.127612 -0.173673,-0.08367 -0.264449,-0.128937 -0.346261,-0.172654 -0.02197,-0.01175 -0.04304,-0.02137 -0.0468,-0.0214 l -0.0068,-4e-5 0.0063,0.01198 c 0.0035,0.0066 0.02931,0.03716 0.05746,0.06791 0.07341,0.08024 0.236021,0.256193 0.320044,0.346318 0.03963,0.04251 0.160738,0.173156 0.269124,0.290326 0.108385,0.117167 0.235435,0.253853 0.282335,0.303746 0.15284,0.162594 0.714209,0.772373 0.797019,0.865748 0.01936,0.02184 0.03794,0.04493 0.04128,0.05134 l 0.0061,0.01163 v 0.0236 0.0236 l -0.01348,0.01348 -0.01348,0.01348 -0.01883,0.0035 -0.01883,0.0035 -0.02229,-0.01096 -0.02229,-0.01096 -0.09589,-0.08873 c -0.05274,-0.0488 -0.122323,-0.112929 -0.154634,-0.142505 -0.03231,-0.02958 -0.155766,-0.14343 -0.274346,-0.25301 -0.118577,-0.109578 -0.28991,-0.267779 -0.380736,-0.351559 -0.09083,-0.08378 -0.184317,-0.170488 -0.207756,-0.192684 -0.02344,-0.0222 -0.09056,-0.08442 -0.149158,-0.138283 -0.140828,-0.129436 -0.442984,-0.410297 -0.568576,-0.528504 -0.05521,-0.05196 -0.105118,-0.09701 -0.11091,-0.100112 l -0.01053,-0.0056 -0.0031,0.0079 -0.0031,0.0079 0.01614,0.03364 c 0.01829,0.03814 0.07987,0.134144 0.117007,0.182444 0.01366,0.01778 0.06612,0.08206 0.11657,0.142865 0.107966,0.130129 0.156693,0.193705 0.209447,0.273263 l 0.03868,0.05833 0.04141,0.08523 0.04141,0.08523 0.04091,0.111868 c 0.08224,0.224892 0.130292,0.333969 0.191285,0.434157 0.04494,0.07382 0.07639,0.110602 0.218667,0.255784 0.0704,0.07183 0.139044,0.143744 0.152554,0.159813 0.06769,0.0805 0.119841,0.18294 0.146411,0.287578 l 0.01014,0.03995 v 0.06925 0.06925 l -0.0098,0.02808 -0.0098,0.02808 -0.01713,0.01816 -0.01713,0.01817 -0.01397,0.0035 -0.01397,0.0035 -0.01505,-0.0072 -0.01504,-0.0072 -0.0063,-0.02927 c -0.0035,-0.0161 -0.01,-0.05612 -0.01438,-0.08895 l -0.008,-0.05968 -0.01322,-0.03799 c -0.0073,-0.02089 -0.02117,-0.05151 -0.0309,-0.06804 l -0.01769,-0.03005 -0.04794,-0.04848 c -0.02637,-0.02667 -0.07671,-0.07217 -0.111869,-0.101118 -0.1346,-0.110817 -0.156028,-0.129417 -0.217636,-0.188918 -0.150218,-0.145078 -0.248828,-0.290833 -0.318957,-0.471446 -0.01024,-0.02637 -0.03248,-0.0839 -0.04943,-0.127849 -0.0774,-0.20071 -0.144032,-0.297778 -0.389577,-0.567569 -0.104926,-0.115284 -0.203358,-0.229922 -0.241081,-0.280769 l -0.02866,-0.03862 h -0.0072 -0.0073 v 0.0052 c 0,0.0092 0.183341,0.511213 0.368685,1.009555 0.19509,0.524543 0.399121,1.079606 0.487575,1.326443 l 0.04009,0.111868 0.0026,0.0253 0.0026,0.0253 -0.02036,0.01865 -0.02036,0.01865 h -0.01564 -0.01564 l -0.01842,-0.01137 -0.01842,-0.01137 -0.04939,-0.101817 C 28.521325,14.421756 28.32662,14.001132 27.923953,13.124449 27.73115,12.704673 27.540955,12.292258 27.526584,12.262794 l -0.01234,-0.0253 h -0.0069 -0.0069 l 2e-5,0.03596 2e-5,0.03596 0.0082,0.05039 c 0.0094,0.05788 0.03159,0.147348 0.05756,0.231945 0.0099,0.03223 0.03047,0.09935 0.04573,0.149159 0.03543,0.115692 0.0617,0.222604 0.07241,0.294706 l 0.0084,0.05683 0.0049,0.09591 0.0049,0.09591 -0.0057,0.173131 -0.0057,0.17313 0.0034,0.07705 0.0034,0.07705 0.0083,0.05346 c 0.01676,0.107784 0.04195,0.186319 0.115354,0.359767 0.05874,0.13877 0.0788,0.194993 0.0922,0.258363 l 0.009,0.04261 1.67e-4,0.09056 1.67e-4,0.09056 -0.0065,0.03463 c -0.0035,0.01904 -0.0125,0.05307 -0.01987,0.0756 l -0.0134,0.04098 -0.02011,0.03112 -0.02011,0.03112 -0.02268,0.01942 -0.02268,0.01942 -0.02097,0.0035 -0.02097,0.0035 -0.01306,-0.0086 -0.01306,-0.0086 -0.0032,-0.01271 -0.0032,-0.01271 0.0084,-0.03116 c 0.0046,-0.01714 0.0144,-0.05361 0.02175,-0.08103 l 0.01336,-0.04986 -8e-5,-0.05934 -8e-5,-0.05934 -0.0075,-0.03197 c -0.01021,-0.04329 -0.02755,-0.08062 -0.117263,-0.252456 l -0.07678,-0.147065 -0.03225,-0.07587 -0.03226,-0.07587 -0.01849,-0.06264 c -0.0259,-0.08771 -0.03848,-0.144871 -0.04513,-0.204923 l -0.0057,-0.05173 -1.2e-5,-0.182663 -1.3e-5,-0.182661 -0.0055,-0.07192 -0.0055,-0.07192 -0.01333,-0.06659 -0.01333,-0.06659 -0.05871,-0.17313 c -0.03229,-0.09522 -0.07425,-0.218677 -0.09324,-0.274344 -0.019,-0.05567 -0.04426,-0.134737 -0.05614,-0.17571 -0.01188,-0.04097 -0.0239,-0.0788 -0.02671,-0.08405 l -0.0051,-0.0096 -0.0045,0.0027 c -0.008,0.0049 -0.01081,0.04496 -0.01905,0.269231 -0.0045,0.121592 -0.01405,0.375694 -0.02131,0.564671 -0.04207,1.096765 -0.05083,1.329911 -0.0559,1.488918 -0.0031,0.09669 -0.0078,0.20267 -0.01054,0.235516 l -0.0049,0.05972 -0.008,0.01555 c -0.0045,0.0086 -0.0155,0.02183 -0.02463,0.02951 l -0.01657,0.01395 h -0.0129 -0.0129 z"
       id="path51" /></g></svg>
