<?xml version="1.0" encoding="UTF-8" standalone="no"?>
<!-- Created with Inkscape (http://www.inkscape.org/) -->

<svg
   width="200"
   height="200"
   viewBox="0 0 52.916665 52.916666"
   version="1.1"
   id="svg1"
   xml:space="preserve"
   inkscape:version="1.4.2 (ebf0e940, 2025-05-08)"
   sodipodi:docname="logo.svg"
   xmlns:inkscape="http://www.inkscape.org/namespaces/inkscape"
   xmlns:sodipodi="http://sodipodi.sourceforge.net/DTD/sodipodi-0.dtd"
   xmlns="http://www.w3.org/2000/svg"
   xmlns:svg="http://www.w3.org/2000/svg"><sodipodi:namedview
     id="namedview1"
     pagecolor="#ffffff"
     bordercolor="#000000"
     borderopacity="0.25"
     inkscape:showpageshadow="2"
     inkscape:pageopacity="0.0"
     inkscape:pagecheckerboard="0"
     inkscape:deskcolor="#d1d1d1"
     inkscape:document-units="mm"
     inkscape:zoom="1.4823793"
     inkscape:cx="-19.563144"
     inkscape:cy="171.34615"
     inkscape:window-width="1920"
     inkscape:window-height="1021"
     inkscape:window-x="0"
     inkscape:window-y="31"
     inkscape:window-maximized="0"
     inkscape:current-layer="layer1" /><defs
     id="defs1" /><g
     inkscape:label="Layer 1"
     inkscape:groupmode="layer"
     id="layer1"><path
       style="fill:#77abdb;fill-opacity:1;stroke-width:0.423333;paint-order:markers fill stroke"
       d="m 11.51232,10.88762 6.960937,-2.0525841 5.176082,-2.945012 3.301984,-1.6956129 3.123496,1.6956129 5.800781,2.945012 8.121094,2.8557691 -0.535456,8.835036 -2.498799,9.727464 -2.677284,6.42548 -3.83744,5.44381 -4.81911,5.176083 -2.945011,1.784856 L 21.507512,44.889123 18.5625,40.69471 15.528245,36.143329 12.940204,30.253305 11.690805,24.184795 10.88762,18.205529 9.9059493,12.404748 Z"
       id="path50"
       sodipodi:nodetypes="ccccccccccccccccccccc" /><path
       style="fill:#f9f9f9;fill-opacity:1;stroke:none;stroke-width:0.1;stroke-linecap:round;stroke-linejoin:miter;stroke-dasharray:none;stroke-opacity:1;paint-order:markers stroke fill"
       d="m 10.084435,16.95613 33.64453,-0.356971 c 0,0 -3.748196,20.52584 -4.015925,20.882811 -0.267727,0.356973 -24.720252,0.08924 -24.720252,0.08924 z"
       id="path79" /><g
       id="g43"
       transform="translate(56.541343,15.145003)"
       style="fill:#803300;fill-opacity:1"><path
         style="fill:#803300;fill-opacity:1;stroke-width:0.236081"
         d="m -29.944794,36.830082 c -2.700773,-1.479734 -4.420732,-2.669236 -6.339979,-4.384635 -0.864201,-0.772416 -0.871074,-0.779145 -1.755924,-1.719925 -5.662298,-6.020166 -9.205806,-14.459784 -10.764613,-25.6382289 -0.442956,-3.1765069 -0.686144,-6.2495697 -0.843619,-10.6607887 l -0.03466,-0.9715906 0.734227,-0.078481 c 0.956073,-0.1021806 2.268584,-0.2999468 3.014113,-0.454269 2.47366,-0.5120225 5.314771,-1.444071 7.609214,-2.4962661 0.217106,-0.09961 0.407649,-0.1810301 0.423424,-0.1810301 0.01576,0 0.583593,-0.2775766 1.261823,-0.6168296 2.298399,-1.149693 4.065044,-2.178734 6.493976,-3.782628 l 0.641202,-0.423403 1.232677,0.810024 c 6.243924,4.103033 12.256454,6.489941 17.910259,7.1101478 0.5496719,0.060257 1.0061632,0.1139306 1.014424,0.1191849 0.032655,0.020793 -0.1140095,3.6460249 -0.2034476,5.0285975 C -10.32315,10.415647 -12.961526,19.562157 -17.659735,26.59823 c -0.813512,1.218322 -2.133234,2.883401 -3.031598,3.824942 l -0.461022,0.483178 -0.06473,-0.04002 -0.06473,-0.04002 0.04875,0.07882 0.04875,0.07882 -0.523147,0.501525 c -1.388341,1.330933 -2.232283,2.043662 -3.490138,2.947517 -1.422596,1.022233 -3.839855,2.476299 -4.247471,2.555014 l -0.156157,0.03018 z m 1.00675,-1.229816 0.242507,-0.242506 v -0.327013 -0.327011 l -0.242507,-0.242496 -0.242495,-0.242507 h -0.279197 -0.279198 l -0.211327,0.142417 -0.211338,0.142415 -0.08161,0.154278 -0.08161,0.154289 0.02493,0.298739 0.02493,0.298728 0.149515,0.160952 c 0.191606,0.206262 0.33467,0.263357 0.67218,0.268253 l 0.272826,0.0045 z m 0.588804,-3.240006 c 2.916404,-2.181093 5.151863,-4.458094 7.251256,-7.386026 2.683948,-3.743196 4.748337,-8.438991 6.013782,-13.679351 0.991106,-4.1043065 1.490413,-8.2072724 1.657694,-13.6218431 l 0.03392,-1.0980534 -0.671259,-0.1392857 c -5.010586,-1.0396963 -9.696005,-3.0264554 -14.401145,-6.1065278 -0.543113,-0.355531 -1.014073,-0.646423 -1.046583,-0.646423 -0.03253,0 -0.304922,0.164518 -0.605338,0.3656044 -3.092436,2.0698452 -6.363467,3.7539297 -9.447162,4.8638671 -1.855276,0.6677756 -2.980228,0.9873872 -5.398125,1.5336526 l -0.619726,0.1400124 0.01286,1.1238335 c 0.03868,3.3742729 0.439758,7.5244275 1.037774,10.7388443 1.024358,5.5060627 2.710656,10.1755977 5.159252,14.2865117 0.354291,0.594828 1.540059,2.416623 1.620038,2.489009 0.01901,0.01722 0.214546,0.270154 0.434581,0.562176 0.613678,0.814383 1.47202,1.83182 2.296477,2.722091 l 0.747375,0.807051 0.868269,0.783863 c 0.477544,0.431128 1.107176,0.980681 1.399196,1.221242 1.011781,0.833489 2.391301,1.836561 2.525243,1.836148 0.03677,-1.12e-4 0.546042,-0.358494 1.13158,-0.796396 z m -10.683964,-5.851388 0.23354,-0.178135 0.124562,-0.281613 0.124575,-0.281612 -0.03074,-0.272848 -0.03074,-0.272859 -0.159577,-0.241141 -0.159577,-0.241144 -0.273697,-0.132488 -0.273696,-0.1325 h -0.232614 -0.232623 l -0.231741,0.118851 c -0.279755,0.143466 -0.481368,0.351014 -0.57114,0.587918 l -0.06662,0.175843 v 0.284128 0.284128 l 0.130677,0.232523 0.13069,0.232513 0.259712,0.170902 0.259712,0.170889 0.382887,-0.02258 0.382898,-0.02258 z m 20.269048,0.08955 0.244662,-0.12482 0.166062,-0.283356 0.16606,-0.283357 V 25.60758 25.30827 l -0.09537,-0.182606 c -0.210432,-0.40311 -0.601861,-0.651084 -1.027767,-0.651084 h -0.226061 l -0.273699,0.1325 -0.273686,0.132488 -0.149302,0.226665 -0.149303,0.226677 -0.04203,0.266386 -0.04215,0.266396 0.103411,0.270746 0.10341,0.270746 0.138961,0.130185 c 0.07646,0.07166 0.223301,0.174044 0.326365,0.227649 l 0.18739,0.09748 0.299187,4.71e-4 0.299187,4.8e-4 z M -45.29089,13.765404 c 0.298527,-0.10643 0.460551,-0.251473 0.61152,-0.547262 l 0.118278,-0.231739 V 12.69872 12.411048 l -0.07009,-0.136435 c -0.103634,-0.201702 -0.375017,-0.478932 -0.567048,-0.579256 l -0.168666,-0.08809 h -0.318516 -0.318527 l -0.168665,0.08809 c -0.389261,0.203367 -0.637145,0.600408 -0.637145,1.020557 v 0.226072 l 0.130287,0.269136 0.130286,0.269136 0.184607,0.131449 c 0.344039,0.244977 0.682075,0.293362 1.073682,0.153697 z m 32.588125,-0.122227 0.232422,-0.153808 0.132492,-0.273697 0.132494,-0.273686 v -0.183702 c 0,-0.101063 -0.02756,-0.279768 -0.06123,-0.397198 l -0.06123,-0.213507 -0.173004,-0.182047 c -0.09515,-0.100172 -0.248904,-0.221713 -0.341674,-0.270175 l -0.168672,-0.08809 -0.331033,0.0023 -0.331031,0.0023 -0.130126,0.07591 c -0.07157,0.04169 -0.205364,0.136357 -0.297322,0.210276 l -0.167194,0.134399 -0.09307,0.222753 -0.09307,0.222752 v 0.254346 0.254345 l 0.118278,0.231741 c 0.142597,0.279398 0.283014,0.412882 0.57067,0.542508 l 0.216763,0.09771 0.306559,-0.03063 0.306559,-0.03063 z M -47.028369,-3.6164518 c 0.06876,-0.018446 0.202854,-0.088542 0.298114,-0.155608 l 0.173183,-0.121991 0.123511,-0.2421038 0.123511,-0.2421039 v -0.2855811 -0.2855699 l -0.08519,-0.2039147 -0.08519,-0.2039146 -0.194301,-0.1634895 -0.194289,-0.1634894 -0.22662,-0.07479 -0.226609,-0.07479 -0.259063,0.040917 -0.259064,0.040917 -0.226665,0.1492914 -0.226665,0.1493027 -0.132489,0.2736972 -0.132499,0.2736973 0.0011,0.2145128 0.0011,0.2145128 0.114669,0.2524339 0.114668,0.2524337 0.201086,0.1692134 0.201097,0.1692022 0.166955,0.036669 c 0.09179,0.020123 0.195072,0.045388 0.229427,0.055898 0.06193,0.019116 0.258873,-0.01118 0.499703,-0.075461 z m 35.947341,-0.051761 c 0.08588,-0.0436 0.230066,-0.1590065 0.320397,-0.2565478 l 0.164239,-0.1773522 0.07724,-0.2415114 0.07724,-0.2415225 -0.03313,-0.2470341 -0.03314,-0.247034 -0.157381,-0.2378222 -0.157381,-0.237811 -0.273694,-0.1324998 -0.273692,-0.1324886 h -0.210411 -0.21041 l -0.271269,0.131326 -0.27127,0.1313147 -0.170075,0.2229758 -0.170074,0.2229868 v 0.4154426 0.4154425 l 0.153302,0.2237359 0.1533,0.2237249 0.185913,0.1097828 c 0.102249,0.060369 0.272187,0.1293472 0.377632,0.1532156 l 0.19172,0.043377 0.187388,-0.031303 c 0.103063,-0.017217 0.257659,-0.066966 0.343546,-0.1104538 z m -17.947168,-7.9138212 0.206006,-0.140539 0.09457,-0.235497 c 0.123309,-0.30709 0.11952,-0.39182 -0.03142,-0.703708 l -0.126028,-0.260326 -0.208184,-0.112118 -0.208185,-0.11211 -0.295174,0.03332 -0.295161,0.03332 -0.183636,0.175944 -0.183634,0.175932 -0.06495,0.241276 -0.06495,0.241278 0.06741,0.204249 0.06741,0.204251 0.170331,0.158671 c 0.208578,0.194288 0.28983,0.225491 0.603706,0.231785 l 0.245984,0.0044 z"
         id="path43"
         sodipodi:nodetypes="ssssscsssssscsssssscccccssscsccccccccccccccsscccssscsssssscsssssscsssscccccccccccssccccccccccccscccsscccccccccssccccsscccsscccsscccssccccsscsscccsscccccsscccccscccccccccccccccccccccccssccsscscccccccccccccccccsscssccsscccccccccccsscccccc" /></g><g
       id="g50"
       transform="translate(-34.983175,-44.264424)" /><path
       style="fill:#fdbe47;fill-opacity:1;stroke:#533000;stroke-width:0.209666;stroke-linecap:round;stroke-linejoin:miter;stroke-dasharray:none;stroke-opacity:1;paint-order:markers stroke fill"
       d="m 26.852765,36.447393 -0.04367,-0.03946 -0.01237,-0.05269 -0.01237,-0.05269 -0.01111,-0.240134 c -0.0061,-0.132069 -0.02617,-0.657298 -0.04457,-1.167166 -0.01845,-0.509867 -0.03858,-1.057709 -0.04483,-1.21743 -0.0063,-0.159724 -0.02384,-0.624628 -0.03912,-1.033137 -0.05103,-1.364606 -0.06791,-1.753301 -0.07963,-1.834515 l -0.0061,-0.04189 h -0.01552 -0.01552 l -0.03401,0.109487 c -0.0608,0.195682 -0.08969,0.37993 -0.134375,0.856634 -0.02726,0.290664 -0.05755,0.50844 -0.09634,0.692296 l -0.02824,0.13385 -0.04235,0.12863 c -0.04529,0.137499 -0.127456,0.331735 -0.288326,0.681498 -0.147689,0.321134 -0.217851,0.52134 -0.277881,0.793006 l -0.02837,0.128441 -0.0088,0.519364 -0.0086,0.519359 -0.02853,0.106468 c -0.01572,0.05856 -0.04411,0.149471 -0.06313,0.202013 l -0.03457,0.09552 -0.04919,0.08634 -0.04919,0.08632 -0.06397,0.07818 c -0.03518,0.043 -0.0898,0.100241 -0.121375,0.127225 l -0.05743,0.04904 -0.0608,0.0283 -0.0608,0.0283 -0.04497,1.26e-4 -0.04497,1.28e-4 -0.02554,-0.01782 -0.02554,-0.01782 -0.01027,-0.02679 -0.01027,-0.0268 0.0109,-0.02883 c 0.0061,-0.01593 0.05141,-0.07995 0.100829,-0.142405 l 0.08984,-0.113576 0.04992,-0.100513 0.04994,-0.100514 0.01635,-0.07819 0.01635,-0.07818 -2.5e-5,-0.128441 -2.1e-5,-0.128441 -0.02208,-0.217793 c -0.01216,-0.119782 -0.02784,-0.312192 -0.03493,-0.427563 l -0.01279,-0.209762 0.01258,-0.169976 c 0.01447,-0.195073 0.03583,-0.330486 0.07986,-0.505056 0.03925,-0.155656 0.088,-0.28556 0.220084,-0.586374 l 0.10542,-0.240137 0.04369,-0.130265 0.04369,-0.130265 0.02778,-0.137793 0.02778,-0.137792 0.01656,-0.161946 c 0.009,-0.08909 0.02208,-0.257447 0.02872,-0.374165 0.03197,-0.560439 0.04688,-0.782142 0.06147,-0.913441 l 0.01593,-0.142782 -0.0063,-0.01635 -0.0063,-0.01635 -0.01153,0.0071 c -0.0063,0.0038 -0.0365,0.0604 -0.06709,0.125589 -0.122634,0.261154 -1.058343,2.291113 -1.058343,2.295998 0,0.0065 -0.513916,1.125553 -0.761829,1.659081 -0.09848,0.211935 -0.238075,0.505959 -0.310217,0.653392 l -0.131167,0.268056 -0.03399,0.0195 -0.03399,0.0195 h -0.03241 -0.03241 l -0.04126,-0.0378 -0.04126,-0.0378 2.3e-5,-0.04875 2.1e-5,-0.04875 0.06588,-0.184297 c 0.09309,-0.260411 0.321133,-0.882187 0.565263,-1.541328 0.114897,-0.310222 0.273145,-0.739953 0.351669,-0.954955 0.07852,-0.215004 0.210703,-0.574369 0.293743,-0.798589 0.185219,-0.500127 0.459923,-1.251405 0.560387,-1.532586 l 0.07468,-0.209058 -0.0038,-0.01761 -0.0038,-0.01761 -0.04317,0.04206 c -0.117078,0.114038 -0.2511,0.327328 -0.493382,0.785312 -0.199895,0.37787 -0.336276,0.59283 -0.499696,0.787641 l -0.09389,0.111919 -0.211177,0.200818 c -0.116155,0.110452 -0.299317,0.288777 -0.407045,0.396279 l -0.19587,0.195451 -0.09561,0.128441 c -0.185051,0.248622 -0.266424,0.407806 -0.445321,0.871182 -0.02013,0.05223 -0.06311,0.14771 -0.09546,0.212216 l -0.05879,0.117287 -0.05864,0.08305 -0.05862,0.08305 -0.107139,0.107705 -0.10716,0.107706 -0.08775,0.0589 c -0.04826,0.03241 -0.11909,0.07357 -0.157417,0.09152 l -0.06965,0.0326 -0.08253,0.01719 -0.08252,0.01719 -0.05575,-0.0078 -0.05575,-0.0078 -0.03657,-0.03657 -0.03659,-0.03659 v -0.02197 -0.02197 l 0.02313,-0.0294 0.02313,-0.0294 0.0802,-0.04577 c 0.04411,-0.02518 0.121606,-0.07338 0.172261,-0.107139 l 0.09206,-0.06137 0.06628,-0.07233 0.06628,-0.07233 0.04527,-0.09263 0.04525,-0.09263 0.05556,-0.171905 c 0.03057,-0.09454 0.07569,-0.240391 0.100283,-0.324087 0.02459,-0.0837 0.07055,-0.221908 0.102129,-0.307148 l 0.05741,-0.154985 0.06636,-0.136408 0.06636,-0.136409 0.07592,-0.114897 c 0.04174,-0.06319 0.107915,-0.155111 0.147038,-0.204256 l 0.07112,-0.08936 0.31335,-0.318317 0.313351,-0.31832 0.08108,-0.107035 c 0.0446,-0.05887 0.113891,-0.161904 0.154,-0.228967 l 0.07294,-0.121921 0.147374,-0.301567 c 0.08106,-0.165866 0.22658,-0.45904 0.323385,-0.651513 0.0968,-0.192473 0.176014,-0.354744 0.176014,-0.360596 v -0.01069 l -0.02076,0.01111 c -0.02155,0.01153 -0.203543,0.175029 -0.453941,0.407799 -0.07986,0.07424 -0.178006,0.165091 -0.218109,0.201888 -0.212192,0.194695 -0.986037,0.910589 -1.273539,1.178173 -0.181529,0.168948 -0.490534,0.455467 -0.686658,0.636687 -0.196121,0.181215 -0.427202,0.394822 -0.513501,0.474682 -0.190125,0.17593 -0.764288,0.701133 -0.826446,0.75596 -0.02459,0.02168 -0.05625,0.04548 -0.07041,0.05288 l -0.02571,0.01342 -0.04403,7e-4 -0.04403,7e-4 -0.02753,-0.01803 -0.02753,-0.01803 -0.01132,-0.04227 -0.01132,-0.04227 0.01174,-0.0422 0.01174,-0.04221 0.12364,-0.136136 c 0.06802,-0.07487 0.174862,-0.191425 0.237447,-0.259002 0.06258,-0.06758 0.268894,-0.291235 0.458449,-0.497024 0.189559,-0.205787 0.428309,-0.464629 0.530565,-0.575205 0.102254,-0.110578 0.288136,-0.311614 0.413073,-0.44676 0.124919,-0.135151 0.350721,-0.378873 0.501754,-0.541613 0.151022,-0.162743 0.342453,-0.369008 0.42538,-0.458378 0.553486,-0.596442 0.731277,-0.787609 0.901903,-0.969735 l 0.192662,-0.205662 v -0.02076 -0.02076 h -0.01615 c -0.0264,0 -0.178404,0.08418 -0.306024,0.169514 -0.116196,0.07768 -0.302252,0.224081 -0.515429,0.405559 -0.473826,0.40337 -0.724654,0.546712 -1.368212,0.781886 -0.475055,0.173603 -0.72189,0.297503 -0.954955,0.479356 l -0.07261,0.05665 -0.292568,0.286483 -0.292571,0.286483 -0.09125,0.06793 -0.09125,0.06795 -0.118775,0.0603 c -0.120516,0.0612 -0.194654,0.08984 -0.325406,0.125778 l -0.07261,0.01992 -0.150792,7e-4 -0.15077,7e-4 -0.05965,-0.02076 -0.05965,-0.02076 -0.03772,-0.03313 -0.03772,-0.03313 -0.0069,-0.03707 -0.0069,-0.03707 0.01237,-0.02329 0.01237,-0.02329 0.05837,-0.01614 c 0.03208,-0.009 0.09355,-0.01929 0.136555,-0.02329 0.043,-0.004 0.118881,-0.01656 0.168613,-0.02812 l 0.09043,-0.02099 0.06449,-0.02851 c 0.03548,-0.01572 0.09531,-0.05053 0.132991,-0.07741 l 0.06852,-0.04889 0.07814,-0.08242 c 0.04298,-0.04535 0.135695,-0.152763 0.206059,-0.238734 0.19826,-0.242254 0.321598,-0.380068 0.459829,-0.51377 l 0.127078,-0.122906 0.112129,-0.08439 c 0.237688,-0.178866 0.457221,-0.294402 0.826065,-0.434755 l 0.212213,-0.08074 0.135171,-0.06563 0.135193,-0.06563 0.149638,-0.09974 0.149639,-0.09974 0.125841,-0.106594 c 0.06921,-0.05862 0.240105,-0.209267 0.379747,-0.334761 0.306032,-0.275018 0.508936,-0.449871 0.602934,-0.519585 l 0.0698,-0.05177 v -0.01405 c 0,-0.0078 -0.0044,-0.01405 -0.0099,-0.01405 -0.01216,0 -0.204403,0.06852 -0.548624,0.195556 -0.144355,0.05328 -0.390637,0.143663 -0.547282,0.200859 -0.156641,0.0572 -0.392872,0.14425 -0.524944,0.193438 -0.132069,0.04919 -0.403483,0.149764 -0.603131,0.223512 -0.199644,0.07376 -0.629377,0.233014 -0.954957,0.353933 -0.325575,0.120914 -0.65227,0.241612 -0.725986,0.268211 -0.07372,0.02659 -0.204404,0.07422 -0.290396,0.10586 -0.235279,0.08649 -0.698449,0.253282 -0.840351,0.302602 l -0.125527,0.04363 h -0.03673 -0.03673 l -0.02491,-0.0174 c -0.01363,-0.0096 -0.03239,-0.03195 -0.04158,-0.04969 l -0.01677,-0.03229 4.2e-5,-0.03128 4.2e-5,-0.03128 0.02508,-0.03038 0.02508,-0.03038 0.178698,-0.08856 c 0.162806,-0.08068 0.398329,-0.191341 1.060184,-0.498091 0.128525,-0.05957 0.284329,-0.131062 0.34624,-0.158885 0.06191,-0.0278 0.245759,-0.11238 0.408548,-0.187923 0.520915,-0.241719 1.257823,-0.580695 2.099786,-0.96589 0.230198,-0.105316 0.88402,-0.408612 0.940991,-0.436504 l 0.05305,-0.02598 v -0.01447 -0.01447 h -0.08319 -0.0832 l -0.12062,0.02287 c -0.160332,0.0304 -0.274046,0.0611 -0.639999,0.172702 -0.348844,0.106385 -0.519155,0.150792 -0.703651,0.183416 l -0.128441,0.02273 -0.201049,0.01195 -0.201048,0.01195 -0.425546,-0.01363 -0.425542,-0.01363 -0.162135,0.01342 -0.162134,0.01342 -0.131608,0.0273 -0.131607,0.0273 -0.147017,0.04988 c -0.08085,0.02742 -0.224607,0.08328 -0.319443,0.124143 -0.355381,0.153077 -0.462581,0.191299 -0.613608,0.218782 l -0.08376,0.0153 -0.184297,-0.0014 -0.184296,-0.0014 -0.109886,-0.02317 -0.109886,-0.02315 -0.09389,-0.0465 -0.09389,-0.0465 -0.0555,-0.06074 -0.0555,-0.06072 -0.0073,-0.0395 -0.0073,-0.0395 0.01237,-0.02721 0.01237,-0.02726 0.0281,-0.01279 0.0281,-0.01279 0.09773,0.02581 c 0.05374,0.01426 0.130371,0.0348 0.170312,0.04583 l 0.07261,0.02013 0.13448,7e-4 0.134479,7e-4 0.06657,-0.01698 0.06657,-0.01698 0.189874,-0.0945 c 0.104434,-0.05195 0.277509,-0.1397 0.384617,-0.194926 0.375624,-0.193711 0.594918,-0.276273 0.922162,-0.347167 l 0.111689,-0.0242 0.564035,-0.0088 0.564041,-0.0086 0.105944,-0.01845 c 0.22373,-0.03902 0.423803,-0.09873 0.871339,-0.259996 0.313843,-0.113094 0.481076,-0.169138 0.67573,-0.226454 0.07986,-0.0235 0.159325,-0.04824 0.176581,-0.05495 l 0.03139,-0.01216 -0.0061,-0.01006 -0.0061,-0.01006 -0.07544,-0.0067 c -0.04149,-0.0038 -0.20109,-0.01174 -0.35466,-0.01782 -0.15358,-0.0061 -0.472733,-0.01866 -0.709236,-0.02789 -0.236506,-0.0094 -0.573252,-0.02178 -0.748329,-0.0278 -0.389003,-0.01342 -1.086297,-0.03906 -1.669772,-0.06156 -0.239577,-0.0092 -0.581351,-0.02174 -0.759498,-0.02784 -0.746431,-0.02543 -1.075367,-0.0417 -1.152484,-0.05692 l -0.05791,-0.01153 -0.03982,-0.04405 -0.03982,-0.04407 v -0.02753 -0.02749 l 0.03504,-0.0399 c 0.01929,-0.02197 0.04445,-0.04495 0.05594,-0.0511 l 0.02097,-0.01111 0.119971,-0.01027 c 0.116239,-0.0099 0.377313,-0.02097 1.063754,-0.04474 0.181214,-0.0063 0.520479,-0.01887 0.75391,-0.02791 0.233434,-0.009 0.645574,-0.02413 0.915867,-0.03346 0.270288,-0.0094 0.614572,-0.02185 0.765078,-0.02782 0.150499,-0.0061 0.411855,-0.01614 0.580791,-0.02241 0.96535,-0.0365 1.291976,-0.05151 1.365417,-0.06267 l 0.04189,-0.0065 v -0.01489 -0.01489 l -0.06982,-0.02241 c -0.127833,-0.04107 -0.194444,-0.05724 -0.32898,-0.0798 l -0.133432,-0.02237 -0.339818,-0.03365 c -0.382921,-0.03791 -0.521996,-0.0563 -0.729846,-0.09645 l -0.144313,-0.02789 -0.126009,-0.03818 c -0.165678,-0.05022 -0.293371,-0.102044 -0.590591,-0.239692 -0.274882,-0.127288 -0.432241,-0.193354 -0.580791,-0.2438 -0.132635,-0.04504 -0.391283,-0.109047 -0.500623,-0.12387 l -0.08737,-0.01195 -0.359394,-3.44e-4 -0.359395,-3.4e-4 -0.134039,-0.01006 -0.134019,-0.01006 -0.122864,-0.03485 -0.122864,-0.03485 -0.101877,-0.0482 c -0.05604,-0.02652 -0.133934,-0.06988 -0.173121,-0.0964 l -0.07122,-0.04822 -0.08764,-0.0885 -0.08766,-0.0885 -0.03239,-0.0685 -0.03239,-0.0685 -9e-6,-0.05112 -10e-6,-0.0511 0.02516,-0.02262 c 0.01384,-0.01237 0.03441,-0.02587 0.04569,-0.02992 l 0.02055,-0.0073 0.03529,0.01698 c 0.0195,0.0094 0.08303,0.05466 0.141378,0.100702 l 0.106111,0.08372 0.08376,0.04353 c 0.04606,0.02392 0.113932,0.05277 0.150791,0.06407 l 0.06701,0.02055 0.206625,-0.0011 0.206626,-10e-4 0.164944,-0.01824 c 0.09072,-0.01006 0.261426,-0.0242 0.379342,-0.03153 l 0.2144,-0.01321 0.163267,0.01342 c 0.422734,0.03478 0.678982,0.107726 1.144333,0.325703 0.140979,0.06604 0.313903,0.129427 0.457931,0.167837 l 0.122864,0.03279 0.156369,0.02208 c 0.199832,0.0282 0.373175,0.04244 0.686896,0.05648 0.335765,0.0151 0.590138,0.03172 0.759498,0.0499 l 0.139616,0.01489 0.01468,-0.0082 0.01468,-0.0082 -0.01468,-0.01195 c -0.008,-0.0065 -0.07498,-0.03944 -0.148695,-0.07311 -0.07372,-0.03365 -0.337583,-0.155509 -0.586375,-0.270773 -0.248752,-0.115141 -0.542779,-0.250912 -0.65335,-0.301603 -0.110578,-0.05068 -0.334235,-0.153475 -0.497026,-0.228399 -0.162784,-0.07493 -0.401526,-0.184129 -0.530528,-0.242668 -0.398666,-0.180878 -1.226362,-0.561338 -1.580423,-0.726443 -0.536023,-0.24996 -0.802447,-0.376067 -0.897558,-0.424852 l -0.09896,-0.05076 -0.02105,-0.03453 -0.02105,-0.03453 -3.8e-5,-0.03592 -4.2e-5,-0.03592 0.03946,-0.03946 0.03946,-0.03946 h 0.04187 0.04187 l 0.156012,0.05489 c 0.08582,0.03019 0.281657,0.100975 0.435231,0.157334 0.15358,0.05634 0.319436,0.116532 0.368578,0.133766 0.04914,0.01719 0.199916,0.07246 0.335071,0.122697 0.294478,0.109487 0.813098,0.30152 1.02197,0.378392 0.08292,0.03051 0.316641,0.116763 0.519359,0.191635 0.202725,0.07487 0.413815,0.152867 0.469102,0.173267 0.05529,0.02034 0.236226,0.08739 0.402086,0.148842 0.165867,0.06145 0.442294,0.162701 0.6143,0.225009 0.17201,0.06231 0.36048,0.131104 0.418837,0.152868 0.05837,0.02174 0.197673,0.0715 0.309563,0.110514 l 0.20346,0.07095 0.0059,-0.0096 0.0059,-0.0096 -0.06814,-0.06309 c -0.122761,-0.113677 -0.340298,-0.248027 -0.76638,-0.473357 -0.375122,-0.198386 -0.58927,-0.332519 -0.761362,-0.476901 -0.10672,-0.08955 -0.352163,-0.335778 -0.53423,-0.535948 -0.326597,-0.359082 -0.578326,-0.563921 -0.882117,-0.717797 l -0.131817,-0.06678 -0.178698,-0.06999 c -0.09829,-0.0385 -0.230936,-0.092 -0.294777,-0.118923 l -0.116071,-0.04892 -0.09508,-0.05743 -0.09508,-0.05743 -0.09852,-0.082 -0.09852,-0.082 -0.07689,-0.0903 -0.07688,-0.0903 -0.05057,-0.08559 -0.05057,-0.08559 -0.02805,-0.07858 -0.02805,-0.07858 -0.0078,-0.06166 -0.0078,-0.06164 0.01237,-0.04602 0.01237,-0.04604 0.03415,-0.02877 0.03413,-0.02872 h 0.01992 0.01992 l 0.02914,0.02294 0.02914,0.02294 0.08684,0.147059 0.08684,0.14706 0.08936,0.08972 0.08934,0.08972 0.07818,0.04076 c 0.09513,0.04961 0.20694,0.08934 0.501068,0.17809 0.123703,0.03732 0.300313,0.09559 0.392457,0.12949 l 0.167544,0.06162 0.156368,0.07611 0.156369,0.07611 0.09494,0.06363 c 0.05221,0.03499 0.142698,0.101667 0.201048,0.148129 l 0.106112,0.0845 0.30715,0.30455 c 0.376187,0.372997 0.432866,0.41983 0.675992,0.558558 0.07386,0.04214 0.274903,0.144439 0.446764,0.227334 0.171863,0.08288 0.454721,0.222359 0.628584,0.309939 0.173855,0.08758 0.320877,0.159241 0.326698,0.159241 0.0057,0 0.01069,-0.0046 0.01069,-0.01027 0,-0.009 -0.345709,-0.386603 -0.864995,-0.945054 -0.0802,-0.08623 -0.231636,-0.249586 -0.336545,-0.362992 -0.104895,-0.113408 -0.323856,-0.34944 -0.486548,-0.524515 C 21.035214,21.3463 20.24308,20.483288 20.202807,20.423619 l -0.03072,-0.0455 v -0.05265 -0.05265 l 0.0282,-0.0282 0.0282,-0.0282 0.02847,-0.0055 0.02847,-0.0055 0.04306,0.0109 0.04307,0.0109 0.154377,0.14121 c 0.08491,0.07766 0.37908,0.348521 0.653707,0.601898 0.274631,0.253381 0.530962,0.489857 0.569622,0.525507 0.111794,0.103092 0.360625,0.333052 0.668056,0.617423 0.156536,0.144796 0.392656,0.363125 0.524731,0.485196 0.284111,0.262596 0.926882,0.860515 1.211314,1.126793 0.110872,0.103784 0.231138,0.213446 0.26728,0.243677 l 0.06571,0.05498 0.01027,-0.01027 0.01027,-0.01027 -0.0195,-0.04912 c -0.02613,-0.06586 -0.0812,-0.159996 -0.172492,-0.294849 l -0.07561,-0.111689 -0.251114,-0.303961 c -0.501458,-0.606999 -0.573671,-0.729287 -0.822849,-1.393422 -0.18417,-0.490878 -0.295033,-0.721485 -0.456318,-0.949189 l -0.06294,-0.08886 -0.30715,-0.313555 c -0.168928,-0.17245 -0.328347,-0.341311 -0.35426,-0.375231 -0.108669,-0.142258 -0.213049,-0.355662 -0.262088,-0.535824 l -0.02568,-0.09433 2.51e-4,-0.156369 2.52e-4,-0.156369 0.02535,-0.06355 0.02535,-0.06355 0.03893,-0.03418 0.03893,-0.03417 h 0.02663 c 0.01468,0 0.03474,0.0031 0.0447,0.0069 l 0.01803,0.0069 0.01572,0.03057 0.01572,0.03057 0.01719,0.138401 c 0.0094,0.07613 0.02472,0.16855 0.03405,0.205409 l 0.01698,0.06701 0.04481,0.08967 0.04483,0.08967 0.06902,0.07649 0.06904,0.07649 0.268674,0.226162 c 0.147772,0.124395 0.327095,0.28195 0.398503,0.35014 l 0.129825,0.123975 0.09355,0.112884 c 0.228802,0.276061 0.361351,0.516353 0.517151,0.937536 0.111207,0.300608 0.224523,0.516526 0.376453,0.717281 0.09441,0.124751 0.268553,0.331607 0.411472,0.48876 0.295391,0.324817 0.454456,0.508454 0.566554,0.654084 l 0.06412,0.0833 h 0.01426 c 0.008,0 0.01426,-0.0031 0.01426,-0.0067 0,-0.02034 -0.546624,-1.508128 -1.105459,-3.008891 -0.190544,-0.511744 -0.576042,-1.565532 -0.691859,-1.891315 l -0.09015,-0.253754 v -0.04579 -0.04579 l 0.0399,-0.03761 0.0399,-0.03761 h 0.03327 0.03327 l 0.03304,0.01719 0.03302,0.01719 0.07114,0.142069 c 0.08703,0.173855 0.299227,0.627406 0.649092,1.387424 0.145634,0.316364 0.297474,0.645571 0.337432,0.731572 0.09972,0.21467 0.414627,0.898923 0.706756,1.535747 0.256241,0.558586 0.501494,1.089816 0.565918,1.225805 l 0.03837,0.08097 h 0.01803 0.01803 l -0.0065,-0.114498 -0.0065,-0.114499 -0.02956,-0.139616 -0.02956,-0.139617 -0.07338,-0.240132 c -0.04036,-0.13209 -0.09978,-0.330608 -0.132069,-0.441181 l -0.05869,-0.201049 -0.02851,-0.145193 c -0.01572,-0.07986 -0.0348,-0.195472 -0.0425,-0.256889 l -0.01405,-0.111689 0.0052,-0.402082 c 0.0027,-0.221145 0.0046,-0.515174 0.0038,-0.653392 l -0.0014,-0.251304 -0.01845,-0.123807 c -0.0361,-0.243405 -0.09647,-0.431836 -0.260969,-0.814395 -0.105232,-0.244755 -0.158675,-0.396637 -0.182703,-0.519356 l -0.01426,-0.07261 3.5e-4,-0.195471 3.5e-4,-0.195451 0.02294,-0.108481 0.02294,-0.108481 0.03971,-0.08259 0.03973,-0.08259 0.05206,-0.05791 0.05206,-0.05791 0.03149,-0.01635 0.03149,-0.01635 h 0.03457 0.03457 l 0.02872,0.02872 0.02872,0.02873 -0.0069,0.04292 c -0.0038,0.02361 -0.02487,0.104917 -0.04684,0.180711 l -0.03998,0.137793 0.0042,0.161945 0.0042,0.161946 0.0387,0.09494 c 0.0213,0.05223 0.104812,0.220589 0.185597,0.374165 0.273569,0.519969 0.376631,0.783773 0.447261,1.144828 l 0.01635,0.08378 0.0088,0.558454 0.0088,0.558451 0.0174,0.106112 c 0.0096,0.05835 0.03252,0.163895 0.05082,0.234551 l 0.03334,0.128441 0.0971,0.279227 c 0.112339,0.323092 0.292066,0.859122 0.337052,1.005213 l 0.03097,0.100514 h 0.01069 0.01069 l 0.008,-0.03908 c 0.0044,-0.02151 0.01321,-0.182346 0.01992,-0.357411 0.0065,-0.175071 0.02705,-0.722915 0.04552,-1.217429 0.01845,-0.494507 0.0512,-1.369044 0.07273,-1.943417 0.02155,-0.574369 0.04416,-1.190061 0.05028,-1.368208 0.01321,-0.383474 0.02055,-0.498277 0.03552,-0.558453 l 0.01111,-0.04468 0.02973,-0.0317 c 0.01635,-0.0174 0.04304,-0.03866 0.05929,-0.04715 l 0.02952,-0.01552 0.03722,0.02508 0.03722,0.02508 0.02411,0.03575 0.02411,0.03573 0.0067,0.04776 c 0.0099,0.06883 0.02476,0.424359 0.06282,1.499741 0.01845,0.522154 0.03864,1.069996 0.04479,1.217431 0.0061,0.147437 0.02371,0.604802 0.039,1.016382 0.05435,1.461897 0.06762,1.762426 0.07984,1.806594 l 0.0055,0.0195 h 0.0151 0.0151 l 0.02298,-0.0698 c 0.01258,-0.03839 0.0355,-0.121879 0.05076,-0.185533 l 0.02778,-0.115736 0.0226,-0.18025 c 0.01237,-0.09913 0.03294,-0.290816 0.04552,-0.425961 0.0398,-0.426699 0.08542,-0.691966 0.158445,-0.921447 0.04722,-0.14836 0.08372,-0.237703 0.212194,-0.519361 0.165678,-0.363223 0.197295,-0.43608 0.239459,-0.551849 0.04621,-0.12689 0.09791,-0.310576 0.128651,-0.457038 l 0.02266,-0.10802 0.0084,-0.513775 0.0084,-0.513776 0.03453,-0.129657 0.03453,-0.129658 0.04426,-0.102673 c 0.05751,-0.13341 0.103218,-0.208198 0.187713,-0.307102 l 0.06883,-0.08057 0.0599,-0.04621 c 0.03292,-0.02543 0.08238,-0.0564 0.109865,-0.06888 l 0.04996,-0.02266 0.04261,-2.53e-4 0.0426,-2.52e-4 0.02151,0.01153 0.02151,0.01153 0.01719,0.03342 0.01719,0.03342 -0.0174,0.03606 c -0.0094,0.01992 -0.04514,0.07066 -0.07919,0.112947 -0.03405,0.04229 -0.08271,0.107538 -0.108145,0.144984 l -0.04625,0.0681 -0.03055,0.07282 -0.03055,0.0728 -0.01342,0.07783 -0.01363,0.07783 0.0065,0.179055 c 0.0036,0.09848 0.01426,0.249423 0.02346,0.335423 0.0094,0.08601 0.02266,0.244326 0.02971,0.351824 l 0.01279,0.195471 -0.0073,0.134019 c -0.01468,0.265856 -0.05994,0.513509 -0.134689,0.737155 l -0.04105,0.122864 -0.106489,0.240135 c -0.05856,0.132068 -0.123305,0.284179 -0.143852,0.33801 -0.108103,0.283181 -0.157396,0.603725 -0.183353,1.192152 -0.01237,0.279685 -0.03784,0.648831 -0.0555,0.802929 l -0.01069,0.0937 0.0096,0.01719 0.0096,0.01719 0.02789,-0.05508 c 0.04472,-0.08835 0.924267,-1.992303 1.186381,-2.568119 0.3796,-0.833914 0.899022,-1.948898 1.045387,-2.244027 l 0.07154,-0.144251 0.03353,-0.02055 0.03353,-0.02055 0.0355,-4.4e-5 0.0355,-4.2e-5 0.03988,0.03761 0.0399,0.03761 v 0.04466 0.04466 l -0.09372,0.261048 c -0.110096,0.306702 -0.266351,0.732824 -0.531958,1.450672 -0.105693,0.28565 -0.253924,0.687733 -0.329406,0.893524 -0.07548,0.205787 -0.241227,0.655625 -0.368322,0.999634 -0.305374,0.826545 -0.597646,1.630433 -0.597646,1.643813 0,0.002 0.0071,0.0036 0.01572,0.0036 h 0.01572 l 0.05889,-0.06422 0.05889,-0.06422 0.08058,-0.122864 c 0.0872,-0.13297 0.177607,-0.291813 0.340088,-0.597547 0.289171,-0.54414 0.476954,-0.79339 0.854334,-1.133967 0.07986,-0.07206 0.212211,-0.196981 0.294112,-0.277575 l 0.148905,-0.146535 0.108251,-0.128441 c 0.222419,-0.263913 0.328124,-0.457713 0.511366,-0.937519 l 0.0621,-0.162638 0.04921,-0.09355 c 0.02707,-0.05145 0.07288,-0.129364 0.101792,-0.173121 l 0.05258,-0.07957 0.123263,-0.122885 0.123263,-0.122885 0.0829,-0.05504 0.0829,-0.05504 0.08374,-0.0364 0.08374,-0.0364 0.07621,-0.01279 0.07621,-0.01279 0.04728,0.008 0.04728,0.008 0.03657,0.03657 0.03657,0.03657 v 0.02197 0.02197 l -0.02204,0.02799 -0.02204,0.02799 -0.129489,0.07642 -0.12949,0.07642 -0.07166,0.05913 -0.07166,0.05913 -0.04583,0.05797 c -0.08578,0.108523 -0.127729,0.212246 -0.252008,0.623164 -0.03994,0.132069 -0.09781,0.307987 -0.128588,0.390918 l -0.05594,0.150791 -0.0763,0.156369 -0.07632,0.156369 -0.06716,0.100514 c -0.03694,0.05529 -0.101457,0.143243 -0.14339,0.19545 l -0.07624,0.09494 -0.318356,0.3239 -0.318363,0.323904 -0.07613,0.102778 c -0.04185,0.05653 -0.112213,0.164756 -0.156368,0.240479 l -0.08024,0.137687 -0.156138,0.323563 c -0.08588,0.177964 -0.225652,0.46087 -0.310615,0.628685 l -0.154482,0.30512 0.0038,0.01132 0.0038,0.01132 0.04088,-0.03252 c 0.04512,-0.03585 0.579371,-0.526834 1.175629,-1.08041 0.09263,-0.08601 0.261045,-0.241808 0.374247,-0.346238 0.11322,-0.104435 0.321766,-0.297935 0.463467,-0.430012 0.141713,-0.132069 0.38321,-0.355713 0.536671,-0.496979 0.153454,-0.141273 0.319233,-0.294883 0.368374,-0.34138 0.04915,-0.04648 0.179684,-0.167146 0.290071,-0.268102 0.110389,-0.100954 0.2662,-0.2436 0.346238,-0.316977 0.214452,-0.196603 0.363489,-0.331519 0.410487,-0.371605 l 0.04158,-0.03545 0.0394,-0.0109 0.0394,-0.0109 0.03795,0.01048 0.03795,0.01048 0.01614,0.02491 c 0.0088,0.01363 0.0195,0.03816 0.02336,0.0543 l 0.0071,0.0294 -0.01279,0.03761 c -0.0071,0.02076 -0.02526,0.05271 -0.04044,0.07114 -0.02732,0.03313 -0.371177,0.407668 -0.912597,0.993982 -0.153581,0.166307 -0.462261,0.500742 -0.685962,0.743183 -0.223703,0.242443 -0.442368,0.478499 -0.485919,0.524571 -0.04355,0.04606 -0.200189,0.214447 -0.348075,0.374164 -0.147877,0.159723 -0.467012,0.50346 -0.709167,0.763879 -0.242156,0.260413 -0.479195,0.51674 -0.526754,0.569618 l -0.08647,0.09615 -8.4e-5,0.0195 -8.6e-5,0.0195 h 0.01258 c 0.02289,0 0.169682,-0.07934 0.277736,-0.150121 0.12907,-0.08456 0.266561,-0.191446 0.528406,-0.410838 0.355601,-0.297933 0.544733,-0.428983 0.810876,-0.561846 0.124416,-0.0621 0.370152,-0.166139 0.447769,-0.189538 0.08925,-0.02692 0.438159,-0.161631 0.555207,-0.21436 0.162575,-0.07324 0.352757,-0.180669 0.476554,-0.269183 l 0.08915,-0.06374 0.296773,-0.290636 c 0.163225,-0.15985 0.332562,-0.319468 0.376304,-0.354707 l 0.07953,-0.06407 0.09357,-0.0537 c 0.11909,-0.06831 0.26212,-0.129573 0.37431,-0.16031 l 0.08785,-0.02407 0.156369,-0.001 0.156369,-0.0011 0.05965,0.02076 0.05965,0.02076 0.03728,0.03275 0.0373,0.03275 0.0067,0.03109 0.0067,0.03109 -0.01132,0.03005 -0.01132,0.03005 -0.02864,0.0109 c -0.01573,0.0061 -0.08747,0.01824 -0.159367,0.02715 -0.07189,0.009 -0.15836,0.02197 -0.192159,0.02893 l -0.06143,0.01258 -0.105336,0.05057 -0.105336,0.05055 -0.107516,0.107663 -0.107517,0.107663 -0.194214,0.234551 -0.194213,0.234551 -0.168131,0.167838 -0.168131,0.167837 -0.108691,0.08129 c -0.264483,0.19784 -0.472903,0.30589 -0.868614,0.450295 l -0.150791,0.05502 -0.145844,0.07053 c -0.290259,0.140371 -0.464554,0.272672 -1.015979,0.771218 -0.250268,0.226265 -0.479307,0.422113 -0.560999,0.479702 l -0.04747,0.03346 v 0.01468 c 0,0.02449 -0.05355,0.04237 0.703651,-0.234876 0.1935,-0.07085 0.442294,-0.162282 0.552865,-0.203209 0.110578,-0.0409 0.31413,-0.11605 0.452348,-0.166977 0.583607,-0.215036 0.981961,-0.362817 1.049893,-0.389476 0.03992,-0.01572 0.238459,-0.08942 0.441177,-0.163874 0.202726,-0.07445 0.461562,-0.169809 0.575205,-0.211895 0.205095,-0.07594 0.920225,-0.335744 1.226161,-0.445454 l 0.159514,-0.0572 h 0.04395 0.04395 l 0.03946,0.03946 0.03946,0.03946 -4e-5,0.03592 -4.4e-5,0.03592 -0.02126,0.03489 -0.02126,0.03489 -0.165762,0.08112 c -0.363187,0.177733 -0.960525,0.454729 -2.600627,1.205976 -0.619609,0.283812 -1.237974,0.567819 -1.505031,0.691243 -0.121313,0.05607 -0.317342,0.146641 -0.435594,0.201279 -0.118251,0.05462 -0.253955,0.118147 -0.301562,0.141126 l -0.08657,0.04181 v 0.01677 0.01677 l 0.114499,-0.0063 0.114477,-0.0063 0.13601,-0.0291 c 0.140854,-0.03015 0.316474,-0.07965 0.623488,-0.175721 0.09829,-0.03076 0.264147,-0.07772 0.368577,-0.104372 l 0.189874,-0.04845 0.121983,-0.01803 c 0.06709,-0.01006 0.200273,-0.02292 0.295979,-0.02887 l 0.174002,-0.01069 0.402084,0.01258 0.402089,0.01258 0.145298,-0.0071 c 0.174987,-0.0084 0.322768,-0.02971 0.473962,-0.06802 0.175218,-0.04443 0.311883,-0.09598 0.681934,-0.257342 0.122864,-0.05359 0.297642,-0.113639 0.396503,-0.136282 l 0.07818,-0.01782 0.206625,3.8e-5 0.206626,3.5e-5 0.108481,0.02319 0.108481,0.02319 0.08565,0.0412 0.08565,0.0412 0.04973,0.04583 0.04973,0.04583 0.02141,0.04193 0.02141,0.04193 v 0.02887 0.02887 l -0.02858,0.02858 -0.02858,0.02858 -0.04682,-0.0071 c -0.02575,-0.0038 -0.09705,-0.02262 -0.158507,-0.04172 l -0.111689,-0.0347 -0.147668,-0.0055 -0.147667,-0.0055 -0.08131,0.01992 -0.08131,0.01992 -0.446762,0.225462 -0.446762,0.225466 -0.09494,0.03598 c -0.141315,0.05355 -0.331442,0.109278 -0.484188,0.141944 l -0.135695,0.02904 -0.564039,0.0086 -0.564037,0.0086 -0.122864,0.02287 c -0.184359,0.03432 -0.313186,0.07101 -0.599917,0.170751 -0.279109,0.0971 -0.899468,0.30514 -1.035443,0.347259 l -0.08286,0.02568 -0.0042,0.01237 -0.0042,0.01237 0.04233,0.0067 c 0.02325,0.0038 0.203146,0.01195 0.399728,0.01845 0.196583,0.0065 0.538347,0.01929 0.759496,0.02835 0.8491,0.03514 0.94792,0.03902 1.278856,0.05013 0.632656,0.02122 0.976148,0.03348 1.24535,0.04451 0.293287,0.01195 0.380747,0.0153 1.066645,0.03944 0.439865,0.01552 0.529413,0.02013 0.667966,0.03447 l 0.05925,0.0061 0.03904,0.03428 c 0.02147,0.01887 0.04604,0.04778 0.05458,0.06428 l 0.01552,0.02998 -0.02013,0.03256 c -0.01111,0.01782 -0.03214,0.04357 -0.04682,0.05703 l -0.02663,0.02445 -0.05063,0.01132 -0.05061,0.01132 -0.384967,0.01698 c -0.211733,0.0094 -0.538262,0.0222 -0.725626,0.02853 -0.187357,0.0063 -0.458768,0.01656 -0.603127,0.02252 -0.144355,0.0061 -0.481107,0.01866 -0.748326,0.02799 -0.267221,0.0094 -0.608998,0.02183 -0.759498,0.02782 -0.150498,0.0061 -0.414371,0.01593 -0.586374,0.02225 -0.17201,0.0063 -0.453465,0.01656 -0.625469,0.02279 -0.520141,0.01908 -1.044819,0.04397 -1.073298,0.05112 l -0.02686,0.0067 v 0.01468 0.01468 l 0.06982,0.02241 c 0.211575,0.06797 0.343248,0.08988 0.847689,0.141084 l 0.386967,0.03927 0.160311,0.02722 c 0.08816,0.01489 0.213742,0.03988 0.279044,0.05533 l 0.118734,0.02814 0.143348,0.05195 0.143349,0.05195 0.279635,0.128316 c 0.507297,0.232789 0.674675,0.293293 1.000037,0.361489 l 0.117287,0.02459 0.508192,0.0084 0.508194,0.0084 0.11148,0.02918 c 0.13905,0.03638 0.243692,0.07538 0.353511,0.131712 l 0.08525,0.04374 0.09345,0.07556 0.09345,0.07556 0.05254,0.06508 c 0.02889,0.03579 0.06116,0.08322 0.07168,0.105357 l 0.01908,0.04028 0.005,0.05288 0.005,0.05288 -0.01824,0.02772 c -0.01006,0.01531 -0.02858,0.03327 -0.04128,0.04009 l -0.02313,0.01237 -0.03361,-0.01174 -0.03363,-0.01174 -0.09682,-0.07703 c -0.05326,-0.04237 -0.129091,-0.09783 -0.168551,-0.123242 l -0.07173,-0.04619 -0.09024,-0.029 -0.09024,-0.029 -0.150791,-0.0057 -0.150792,-0.0057 -0.22338,0.02344 c -0.122864,0.013 -0.312276,0.02918 -0.420925,0.03617 l -0.197547,0.01258 -0.185575,-0.013 c -0.419311,-0.02973 -0.618451,-0.08357 -1.117028,-0.302183 l -0.234548,-0.102841 -0.128442,-0.04307 -0.128441,-0.04307 -0.139616,-0.02795 -0.139617,-0.02795 -0.161946,-0.01719 c -0.08907,-0.0094 -0.300168,-0.0247 -0.469099,-0.03399 -0.527798,-0.029 -0.682706,-0.03977 -0.818993,-0.05703 l -0.132089,-0.01677 -0.02273,0.0071 -0.02273,0.0071 0.0151,0.01468 c 0.01405,0.01363 0.204298,0.104749 0.512226,0.245542 0.07064,0.03229 0.228968,0.105105 0.351826,0.161757 0.122864,0.05667 0.313851,0.144586 0.424424,0.195388 0.110578,0.05078 0.306592,0.141272 0.435595,0.20109 0.129008,0.05982 0.430568,0.198113 0.670143,0.30732 1.038516,0.473408 2.18426,1.005511 2.430215,1.128635 l 0.174064,0.08714 0.01866,0.02841 0.01866,0.02841 v 0.02887 0.02885 l -0.01677,0.03229 c -0.0092,0.01782 -0.02789,0.04013 -0.04158,0.04971 l -0.02487,0.0174 h -0.04078 -0.04078 l -0.04887,-0.01782 c -0.02686,-0.0096 -0.124268,-0.04441 -0.216406,-0.07701 -0.207527,-0.07345 -0.732635,-0.265525 -1.491072,-0.545433 -1.139871,-0.420684 -1.715544,-0.632807 -2.083032,-0.767551 -0.147437,-0.05407 -0.42135,-0.154502 -0.60871,-0.223203 -0.187357,-0.06871 -0.380866,-0.139072 -0.430007,-0.156369 -0.04915,-0.0174 -0.153434,-0.05401 -0.231755,-0.08156 l -0.142405,-0.05009 -0.0055,0.0088 -0.0055,0.0088 0.02227,0.0283 c 0.0599,0.07615 0.333899,0.252862 0.669912,0.432025 0.51287,0.273472 0.719,0.400277 0.904693,0.556562 l 0.106112,0.0893 0.161946,0.16637 c 0.08907,0.09152 0.25232,0.261157 0.362772,0.377006 l 0.200818,0.210635 0.111919,0.09416 c 0.06156,0.05179 0.167314,0.131209 0.235029,0.176497 l 0.123116,0.08234 0.139365,0.06657 c 0.07665,0.03661 0.242397,0.107391 0.368326,0.157312 0.343955,0.136283 0.466595,0.20369 0.636634,0.349909 0.138463,0.119069 0.246309,0.253473 0.317748,0.396036 l 0.04059,0.08097 0.0225,0.08655 0.0225,0.08655 -0.0073,0.06082 -0.0073,0.06082 -0.0369,0.0369 -0.0369,0.0369 h -0.02518 -0.02518 l -0.04015,-0.04225 -0.04015,-0.04225 -0.03814,-0.07221 c -0.02099,-0.03973 -0.05825,-0.10238 -0.08284,-0.139239 l -0.0447,-0.06701 -0.07927,-0.07862 -0.0793,-0.07863 -0.105923,-0.05193 -0.105923,-0.05193 -0.184297,-0.0569 c -0.397488,-0.122697 -0.480046,-0.149597 -0.625521,-0.203754 l -0.150791,-0.05615 -0.131335,-0.06579 c -0.156683,-0.0785 -0.254803,-0.140141 -0.404724,-0.254226 l -0.111626,-0.08496 -0.335136,-0.329771 -0.33513,-0.32977 -0.117287,-0.0851 -0.117287,-0.08512 -0.156369,-0.08731 c -0.08601,-0.04799 -0.324741,-0.168403 -0.53053,-0.267558 -0.364133,-0.175428 -0.554459,-0.270337 -0.725991,-0.361997 -0.04606,-0.02464 -0.09024,-0.04481 -0.09812,-0.04487 l -0.01426,-8.4e-5 0.01321,0.02512 c 0.0073,0.01384 0.06145,0.07791 0.120474,0.142384 0.153916,0.168236 0.494856,0.537149 0.671023,0.72611 0.08309,0.08913 0.337013,0.363049 0.564261,0.608714 0.227246,0.24566 0.493627,0.532243 0.59196,0.636852 0.320453,0.340904 1.497452,1.619402 1.671076,1.815177 0.04059,0.04579 0.07955,0.0942 0.08655,0.107643 l 0.01279,0.02438 v 0.04948 0.04948 l -0.02826,0.02826 -0.02826,0.02826 -0.03948,0.0073 -0.03948,0.0073 -0.04673,-0.02298 -0.04673,-0.02298 -0.201049,-0.186037 c -0.110578,-0.102316 -0.256469,-0.236773 -0.324214,-0.298784 -0.06774,-0.06202 -0.326588,-0.300723 -0.57521,-0.530475 -0.248616,-0.229748 -0.607842,-0.561441 -0.798273,-0.737099 -0.19044,-0.175658 -0.38645,-0.357455 -0.435594,-0.403993 -0.04915,-0.04655 -0.189873,-0.176999 -0.312733,-0.289932 -0.295268,-0.271383 -0.928786,-0.860252 -1.192109,-1.108092 -0.115757,-0.108942 -0.220397,-0.203397 -0.232541,-0.2099 l -0.02208,-0.01174 -0.0065,0.01656 -0.0065,0.01656 0.03384,0.07053 c 0.03835,0.07997 0.167461,0.281254 0.245324,0.382523 0.02864,0.03728 0.138631,0.172051 0.244408,0.299539 0.226367,0.272836 0.328531,0.406133 0.439138,0.572939 l 0.0811,0.122298 0.08682,0.178698 0.08682,0.178698 0.08577,0.234549 c 0.17243,0.471522 0.273178,0.700219 0.40106,0.910279 0.09422,0.154775 0.160163,0.231894 0.45847,0.536291 0.147604,0.150603 0.291527,0.301382 0.319853,0.335073 0.141923,0.168781 0.251266,0.383563 0.306974,0.602953 l 0.02126,0.08376 v 0.145193 0.145194 l -0.02055,0.05887 -0.02055,0.05887 -0.03592,0.03808 -0.03592,0.0381 -0.02929,0.0073 -0.02929,0.0073 -0.03155,-0.0151 -0.03153,-0.0151 -0.01321,-0.06137 c -0.0073,-0.03376 -0.02097,-0.117664 -0.03015,-0.186498 l -0.01677,-0.125128 -0.02772,-0.07965 c -0.01531,-0.0438 -0.04439,-0.107999 -0.06479,-0.142657 l -0.03709,-0.063 -0.100513,-0.101646 c -0.05529,-0.05592 -0.160835,-0.151316 -0.234551,-0.21201 -0.282211,-0.232345 -0.327138,-0.271343 -0.456309,-0.396097 -0.314955,-0.304178 -0.521707,-0.609777 -0.668743,-0.988461 -0.02147,-0.05529 -0.0681,-0.175909 -0.103638,-0.268055 -0.162282,-0.42082 -0.301986,-0.624339 -0.81681,-1.189998 -0.219994,-0.241711 -0.426372,-0.482068 -0.505464,-0.588677 l -0.06009,-0.08097 h -0.0151 -0.01531 v 0.0109 c 0,0.01929 0.384403,1.071839 0.773006,2.116691 0.409037,1.099788 0.83682,2.263565 1.022278,2.781098 l 0.08405,0.234549 0.0055,0.05304 0.0055,0.05305 -0.04269,0.0391 -0.04269,0.0391 h -0.03279 -0.03279 l -0.03862,-0.02384 -0.03862,-0.02384 -0.103554,-0.213476 c -0.142552,-0.295083 -0.550773,-1.176988 -1.395028,-3.015092 -0.404242,-0.880127 -0.803016,-1.74482 -0.833147,-1.806596 l -0.02587,-0.05305 h -0.01447 -0.01447 l 4.2e-5,0.0754 4.2e-5,0.0754 0.01719,0.105651 c 0.01971,0.121354 0.06623,0.308938 0.120683,0.486309 0.02076,0.06758 0.06388,0.208303 0.09588,0.312736 0.07428,0.242566 0.129364,0.466724 0.151819,0.617897 l 0.01761,0.119153 0.01027,0.201091 0.01027,0.20109 -0.01195,0.362997 -0.01195,0.362994 0.0071,0.161548 0.0071,0.161547 0.0174,0.112087 c 0.03514,0.225987 0.08796,0.390648 0.241858,0.754309 0.123158,0.290953 0.165217,0.408833 0.193312,0.541699 l 0.01887,0.08934 3.5e-4,0.189873 3.5e-4,0.189874 -0.01363,0.07261 c -0.0073,0.03992 -0.02621,0.11127 -0.04166,0.158507 l -0.0281,0.08592 -0.04216,0.06525 -0.04216,0.06525 -0.04755,0.04072 -0.04755,0.04072 -0.04397,0.0073 -0.04397,0.0073 -0.02738,-0.01803 -0.02738,-0.01803 -0.0067,-0.02665 -0.0067,-0.02665 0.01761,-0.06533 c 0.0096,-0.03594 0.03019,-0.112402 0.0456,-0.169892 l 0.02801,-0.10454 -1.67e-4,-0.124415 -1.68e-4,-0.124416 -0.01572,-0.06703 c -0.02141,-0.09077 -0.05776,-0.169033 -0.24586,-0.529314 l -0.160982,-0.308345 -0.06762,-0.159074 -0.06764,-0.159073 -0.03877,-0.131335 c -0.0543,-0.183898 -0.08068,-0.303745 -0.09462,-0.429653 l -0.01195,-0.10846 -2.6e-5,-0.382982 -2.7e-5,-0.382978 -0.01153,-0.150791 -0.01153,-0.150792 -0.02795,-0.139616 -0.02795,-0.139617 -0.123095,-0.362994 c -0.0677,-0.199644 -0.155677,-0.458491 -0.195492,-0.575206 -0.03984,-0.116721 -0.0928,-0.282497 -0.117707,-0.368403 -0.02491,-0.0859 -0.05011,-0.165217 -0.056,-0.176225 l -0.01069,-0.02013 -0.0094,0.0057 c -0.01677,0.01027 -0.02266,0.09427 -0.03994,0.564486 -0.0094,0.254937 -0.02946,0.787702 -0.04468,1.183922 -0.08821,2.299541 -0.106573,2.788368 -0.117204,3.121751 -0.0065,0.202726 -0.01635,0.42493 -0.0221,0.493797 l -0.01027,0.125212 -0.01677,0.0326 c -0.0094,0.01803 -0.0325,0.04577 -0.05164,0.06187 l -0.03474,0.02925 h -0.02705 -0.02705 z"
       id="path51" /></g></svg>
